<svg width="268" height="109" viewBox="0 0 268 109" fill="none" xmlns="http://www.w3.org/2000/svg">
<path d="M0.412598 4.69253C0.412598 2.1678 2.4593 0.121094 4.98403 0.121094C7.50876 0.121094 9.55546 2.16779 9.55546 4.69252V79.9342H0.412598V4.69253Z" fill="#4C4C4C"/>
<path d="M0.412598 3.06502C0.412598 1.43914 2.4593 0.121094 4.98403 0.121094C7.50876 0.121094 9.55546 1.43913 9.55546 3.06502V79.9342H0.412598V3.06502Z" fill="#4C4C4C"/>
<path d="M13.6189 96.2977C13.6189 98.8224 15.6656 100.869 18.1903 100.869C20.7151 100.869 22.7618 98.8224 22.7618 96.2977V79.9346H13.6189V96.2977Z" fill="white"/>
<path d="M13.6189 100.097C13.6189 100.523 15.6656 100.869 18.1903 100.869C20.7151 100.869 22.7618 100.523 22.7618 100.097V79.9346H13.6189V100.097Z" fill="white"/>
<path d="M41.0476 19.0851C41.0476 16.5604 43.0943 14.5137 45.619 14.5137C48.1438 14.5137 50.1905 16.5604 50.1905 19.0851V79.9342H41.0476V19.0851Z" fill="#4C4C4C"/>
<path d="M41.0476 16.9267C41.0476 15.594 43.0943 14.5137 45.619 14.5137C48.1438 14.5137 50.1905 15.594 50.1905 16.9267V79.9342H41.0476V16.9267Z" fill="#4C4C4C"/>
<path d="M52.5439 95.0586L52.5205 94.5038L61.6599 79.3821L51.904 80.0175L52.5439 95.0586Z" fill="white"/>
<path d="M52.5205 94.5038C52.5335 94.8102 54.5899 95.0225 57.1137 94.978C59.6374 94.9334 61.6728 94.6489 61.6598 94.3425L61.6599 79.3821L51.904 80.0175L52.5205 94.5038Z" fill="white"/>
<path d="M80.6667 26.9347C80.6667 24.41 82.7134 22.3633 85.2382 22.3633C87.7629 22.3633 89.8096 24.41 89.8096 26.9347V80.5876H80.6667V26.9347Z" fill="#4C4C4C"/>
<path d="M80.6667 24.5109C80.6667 23.3248 82.7134 22.3633 85.2382 22.3633C87.7629 22.3633 89.8096 23.3248 89.8096 24.5109V80.5876H80.6667V24.5109Z" fill="#4C4C4C"/>
<path d="M93.873 89.0722C93.873 89.9404 94.1203 90.7906 94.5858 91.5234C97.0391 95.3854 103.016 93.6475 103.016 89.0722V80.5883H93.873V89.0722Z" fill="white"/>
<path d="M93.873 90.0395C93.873 90.2394 95.9197 90.4014 98.4445 90.4014C100.969 90.4014 103.016 90.2394 103.016 90.0395V80.5883H93.873V90.0395Z" fill="white"/>
<path d="M121.302 51.7951C121.302 49.2703 123.348 47.2236 125.873 47.2236C128.398 47.2236 130.444 49.2703 130.444 51.7951V79.9339H121.302V51.7951Z" fill="#4C4C4C"/>
<path d="M121.302 48.4302C121.302 47.7638 123.348 47.2236 125.873 47.2236C128.398 47.2236 130.444 47.7638 130.444 48.4302V79.9339H121.302V48.4302Z" fill="#4C4C4C"/>
<path d="M134.508 79.2799C134.508 81.8047 136.555 83.8594 139.079 83.8594C141.604 83.8594 143.651 81.8047 143.651 79.2799H134.508Z" fill="white"/>
<path d="M134.508 83.6905C134.508 83.7837 136.555 83.8594 139.079 83.8594C141.604 83.8594 143.651 83.7837 143.651 83.6905V79.2799H134.508V83.6905Z" fill="white"/>
<path d="M161.936 103.494C161.936 106.019 163.983 108.065 166.508 108.065C169.032 108.065 171.079 106.019 171.079 103.494V79.2804H161.936V103.494Z" fill="#4C4C4C"/>
<path d="M161.936 107.004C161.936 107.59 163.983 108.065 166.508 108.065C169.032 108.065 171.079 107.59 171.079 107.004V79.2804H161.936V107.004Z" fill="#4C4C4C"/>
<path d="M175.143 68.8048C175.143 66.2801 177.19 64.2334 179.714 64.2334C182.239 64.2334 184.286 66.2801 184.286 68.8048V81.8969H175.143V68.8048Z" fill="white"/>
<path d="M175.143 64.8849C175.143 64.5251 177.19 64.2334 179.714 64.2334C182.239 64.2334 184.286 64.5251 184.286 64.8849V81.8969H175.143V64.8849Z" fill="white"/>
<path d="M202.572 84.5213C202.572 87.0461 204.618 89.0928 207.143 89.0928C209.668 89.0928 211.714 87.0461 211.714 84.5213V79.2797H202.572V84.5213Z" fill="#4C4C4C"/>
<path d="M202.572 88.7308C202.572 88.9307 204.618 89.0928 207.143 89.0928C209.668 89.0928 211.714 88.9307 211.714 88.7308V79.2797H202.572V88.7308Z" fill="#4C4C4C"/>
<path d="M217.81 38.7111C217.81 36.1863 219.856 34.1396 222.381 34.1396C224.906 34.1396 226.952 36.1863 226.952 38.7111V79.934H217.81V38.7111Z" fill="white"/>
<path d="M217.81 35.8288C217.81 34.8959 219.856 34.1396 222.381 34.1396C224.906 34.1396 226.952 34.8959 226.952 35.8288V79.934H217.81V35.8288Z" fill="white"/>
<path d="M245.238 84.5213C245.238 87.0461 247.285 89.0928 249.81 89.0928C252.334 89.0928 254.381 87.0461 254.381 84.5213V82.5507H245.238V84.5213Z" fill="#4C4C4C"/>
<path d="M245.238 88.8515C245.238 88.9847 247.285 89.0928 249.81 89.0928C252.334 89.0928 254.381 88.9847 254.381 88.8515V82.5507H245.238V88.8515Z" fill="#4C4C4C"/>
<path d="M258.444 16.4679C258.444 13.9432 260.491 11.8965 263.016 11.8965C265.54 11.8965 267.587 13.9432 267.587 16.4679V82.5507H258.444V16.4679Z" fill="white"/>
<path d="M258.444 14.5026C258.444 13.0633 260.491 11.8965 263.016 11.8965C265.54 11.8965 267.587 13.0633 267.587 14.5026V82.5507H258.444V14.5026Z" fill="white"/>
</svg>
