<svg width="80" height="75" viewBox="0 0 80 75" fill="none" xmlns="http://www.w3.org/2000/svg">
<path d="M39.0163 20.1769C39.6413 19.941 40.36 19.941 40.985 20.1769L58.4853 26.7396C59.5791 27.1504 60.1885 28.1758 59.9463 29.1875C59.7119 30.2061 58.6885 30.876 57.4306 30.9375V31.4844C57.4306 32.3936 56.665 33.125 55.5556 33.125H24.3051C23.3394 33.125 22.43 32.3936 22.43 31.4844V30.9375C21.3136 30.876 20.29 30.2061 20.0513 29.1875C19.8126 28.1758 20.4245 27.1504 21.5152 26.7396L39.0163 20.1769ZM40.0007 28.75C41.3835 28.75 42.5007 27.7725 42.5007 26.5625C42.5007 25.3546 41.3835 24.375 40.0007 24.375C38.6178 24.375 37.5006 25.3546 37.5006 26.5625C37.5006 27.7725 38.6178 28.75 40.0007 28.75ZM29.9302 48.4375H33.0552V35.3125H38.0553V48.4375H41.8757V35.3125H46.8758V48.4375H50.0008V35.3125H55.0009V48.7314C55.0478 48.752 55.0947 48.7178 55.1415 48.8066L58.8916 50.9941C59.8057 51.5273 60.2119 52.5254 59.8916 53.4482C59.5713 54.3711 58.6025 55 57.501 55H22.43C21.3988 55 20.4267 54.3711 20.1075 53.4482C19.7882 52.5254 20.1968 51.5273 21.1136 50.9941L24.8637 48.8066C24.9082 48.7178 24.9543 48.752 24.9301 48.7314V35.3125H29.9302V48.4375Z" fill="#B4CD93"/>
<path d="M79.5 37.5C79.5 57.9046 61.8461 74.5 40 74.5C18.1539 74.5 0.5 57.9046 0.5 37.5C0.5 17.0954 18.1539 0.5 40 0.5C61.8461 0.5 79.5 17.0954 79.5 37.5Z" stroke="#808080"/>
</svg>
