<svg width="118" height="119" viewBox="0 0 118 119" fill="none" xmlns="http://www.w3.org/2000/svg">
<g clip-path="url(#clip0_410_4910)">
<path d="M58.9659 118.112C91.4135 118.112 117.717 91.809 117.717 59.3623C117.717 26.9156 91.4135 0.612305 58.9659 0.612305C26.5183 0.612305 0.214355 26.9156 0.214355 59.3623C0.214355 91.809 26.5183 118.112 58.9659 118.112Z" fill="#69F0AE"/>
<path d="M83.0943 42.0062C82.1236 41.0448 80.5499 41.0448 79.5791 42.0062L49.7996 71.4969L38.3528 60.1613C37.3821 59.1999 35.8084 59.2 34.8376 60.1613C33.8668 61.1225 33.8668 62.681 34.8376 63.6423L48.0419 76.7183C49.0123 77.6796 50.5872 77.6789 51.5572 76.7183L83.0943 45.4873C84.065 44.526 84.065 42.9675 83.0943 42.0062Z" fill="white" stroke="white" stroke-width="4.88889"/>
</g>
<defs>
<clipPath id="clip0_410_4910">
<rect width="117.503" height="117.5" fill="white" transform="translate(0.214355 0.612305)"/>
</clipPath>
</defs>
</svg>
