<svg width="420" height="310" viewBox="0 0 420 310" fill="none" xmlns="http://www.w3.org/2000/svg">
<g filter="url(#filter0_d_410_5230)">
<rect x="50" y="41" width="320" height="210" rx="40" fill="#B4CD93"/>
</g>
<path d="M84.104 202V191.776H80.072V189.4H91.052V191.776H87.02V202H84.104ZM92.212 202V192.316H94.894V195.052L94.516 194.26C94.804 193.576 95.266 193.06 95.902 192.712C96.538 192.352 97.312 192.172 98.224 192.172V194.764C98.104 194.752 97.996 194.746 97.9 194.746C97.804 194.734 97.702 194.728 97.594 194.728C96.826 194.728 96.202 194.95 95.722 195.394C95.254 195.826 95.02 196.504 95.02 197.428V202H92.212ZM105.201 202V200.11L105.021 199.696V196.312C105.021 195.712 104.835 195.244 104.463 194.908C104.103 194.572 103.545 194.404 102.789 194.404C102.273 194.404 101.763 194.488 101.259 194.656C100.767 194.812 100.347 195.028 99.9988 195.304L98.9908 193.342C99.5188 192.97 100.155 192.682 100.899 192.478C101.643 192.274 102.399 192.172 103.167 192.172C104.643 192.172 105.789 192.52 106.605 193.216C107.421 193.912 107.829 194.998 107.829 196.474V202H105.201ZM102.249 202.144C101.493 202.144 100.845 202.018 100.305 201.766C99.7648 201.502 99.3508 201.148 99.0628 200.704C98.7748 200.26 98.6308 199.762 98.6308 199.21C98.6308 198.634 98.7688 198.13 99.0448 197.698C99.3328 197.266 99.7828 196.93 100.395 196.69C101.007 196.438 101.805 196.312 102.789 196.312H105.363V197.95H103.095C102.435 197.95 101.979 198.058 101.727 198.274C101.487 198.49 101.367 198.76 101.367 199.084C101.367 199.444 101.505 199.732 101.781 199.948C102.069 200.152 102.459 200.254 102.951 200.254C103.419 200.254 103.839 200.146 104.211 199.93C104.583 199.702 104.853 199.372 105.021 198.94L105.453 200.236C105.249 200.86 104.877 201.334 104.337 201.658C103.797 201.982 103.101 202.144 102.249 202.144ZM116.256 192.172C117.024 192.172 117.708 192.328 118.308 192.64C118.92 192.94 119.4 193.408 119.748 194.044C120.096 194.668 120.27 195.472 120.27 196.456V202H117.462V196.888C117.462 196.108 117.288 195.532 116.94 195.16C116.604 194.788 116.124 194.602 115.5 194.602C115.056 194.602 114.654 194.698 114.294 194.89C113.946 195.07 113.67 195.352 113.466 195.736C113.274 196.12 113.178 196.612 113.178 197.212V202H110.37V192.316H113.052V194.998L112.548 194.188C112.896 193.54 113.394 193.042 114.042 192.694C114.69 192.346 115.428 192.172 116.256 192.172ZM126.074 202.144C125.246 202.144 124.448 202.048 123.68 201.856C122.924 201.652 122.324 201.4 121.88 201.1L122.816 199.084C123.26 199.36 123.782 199.588 124.382 199.768C124.994 199.936 125.594 200.02 126.182 200.02C126.83 200.02 127.286 199.942 127.55 199.786C127.826 199.63 127.964 199.414 127.964 199.138C127.964 198.91 127.856 198.742 127.64 198.634C127.436 198.514 127.16 198.424 126.812 198.364C126.464 198.304 126.08 198.244 125.66 198.184C125.252 198.124 124.838 198.046 124.418 197.95C123.998 197.842 123.614 197.686 123.266 197.482C122.918 197.278 122.636 197.002 122.42 196.654C122.216 196.306 122.114 195.856 122.114 195.304C122.114 194.692 122.288 194.152 122.636 193.684C122.996 193.216 123.512 192.85 124.184 192.586C124.856 192.31 125.66 192.172 126.596 192.172C127.256 192.172 127.928 192.244 128.612 192.388C129.296 192.532 129.866 192.742 130.322 193.018L129.386 195.016C128.918 194.74 128.444 194.554 127.964 194.458C127.496 194.35 127.04 194.296 126.596 194.296C125.972 194.296 125.516 194.38 125.228 194.548C124.94 194.716 124.796 194.932 124.796 195.196C124.796 195.436 124.898 195.616 125.102 195.736C125.318 195.856 125.6 195.952 125.948 196.024C126.296 196.096 126.674 196.162 127.082 196.222C127.502 196.27 127.922 196.348 128.342 196.456C128.762 196.564 129.14 196.72 129.476 196.924C129.824 197.116 130.106 197.386 130.322 197.734C130.538 198.07 130.646 198.514 130.646 199.066C130.646 199.666 130.466 200.2 130.106 200.668C129.746 201.124 129.224 201.484 128.54 201.748C127.868 202.012 127.046 202.144 126.074 202.144ZM132.72 202V192.1C132.72 191.008 133.044 190.138 133.692 189.49C134.34 188.83 135.264 188.5 136.464 188.5C136.872 188.5 137.262 188.542 137.634 188.626C138.018 188.71 138.342 188.842 138.606 189.022L137.868 191.056C137.712 190.948 137.538 190.864 137.346 190.804C137.154 190.744 136.95 190.714 136.734 190.714C136.326 190.714 136.008 190.834 135.78 191.074C135.564 191.302 135.456 191.65 135.456 192.118V193.018L135.528 194.224V202H132.72ZM131.226 194.692V192.532H137.94V194.692H131.226ZM144.022 202.144C142.918 202.144 141.946 201.928 141.106 201.496C140.278 201.064 139.636 200.476 139.18 199.732C138.724 198.976 138.496 198.118 138.496 197.158C138.496 196.186 138.718 195.328 139.162 194.584C139.618 193.828 140.236 193.24 141.016 192.82C141.796 192.388 142.678 192.172 143.662 192.172C144.61 192.172 145.462 192.376 146.218 192.784C146.986 193.18 147.592 193.756 148.036 194.512C148.48 195.256 148.702 196.15 148.702 197.194C148.702 197.302 148.696 197.428 148.684 197.572C148.672 197.704 148.66 197.83 148.648 197.95H140.782V196.312H147.172L146.092 196.798C146.092 196.294 145.99 195.856 145.786 195.484C145.582 195.112 145.3 194.824 144.94 194.62C144.58 194.404 144.16 194.296 143.68 194.296C143.2 194.296 142.774 194.404 142.402 194.62C142.042 194.824 141.76 195.118 141.556 195.502C141.352 195.874 141.25 196.318 141.25 196.834V197.266C141.25 197.794 141.364 198.262 141.592 198.67C141.832 199.066 142.162 199.372 142.582 199.588C143.014 199.792 143.518 199.894 144.094 199.894C144.61 199.894 145.06 199.816 145.444 199.66C145.84 199.504 146.2 199.27 146.524 198.958L148.018 200.578C147.574 201.082 147.016 201.472 146.344 201.748C145.672 202.012 144.898 202.144 144.022 202.144ZM150.571 202V192.316H153.253V195.052L152.875 194.26C153.163 193.576 153.625 193.06 154.261 192.712C154.897 192.352 155.671 192.172 156.583 192.172V194.764C156.463 194.752 156.355 194.746 156.259 194.746C156.163 194.734 156.061 194.728 155.953 194.728C155.185 194.728 154.561 194.95 154.081 195.394C153.613 195.826 153.379 196.504 153.379 197.428V202H150.571ZM167.381 202.144C166.241 202.144 165.353 201.856 164.717 201.28C164.081 200.692 163.763 199.822 163.763 198.67V190.174H166.571V198.634C166.571 199.042 166.679 199.36 166.895 199.588C167.111 199.804 167.405 199.912 167.777 199.912C168.221 199.912 168.599 199.792 168.911 199.552L169.667 201.532C169.379 201.736 169.031 201.892 168.623 202C168.227 202.096 167.813 202.144 167.381 202.144ZM162.269 194.692V192.532H168.983V194.692H162.269ZM175.552 202.144C174.52 202.144 173.602 201.928 172.798 201.496C172.006 201.064 171.376 200.476 170.908 199.732C170.452 198.976 170.224 198.118 170.224 197.158C170.224 196.186 170.452 195.328 170.908 194.584C171.376 193.828 172.006 193.24 172.798 192.82C173.602 192.388 174.52 192.172 175.552 192.172C176.572 192.172 177.484 192.388 178.288 192.82C179.092 193.24 179.722 193.822 180.178 194.566C180.634 195.31 180.862 196.174 180.862 197.158C180.862 198.118 180.634 198.976 180.178 199.732C179.722 200.476 179.092 201.064 178.288 201.496C177.484 201.928 176.572 202.144 175.552 202.144ZM175.552 199.84C176.02 199.84 176.44 199.732 176.812 199.516C177.184 199.3 177.478 198.994 177.694 198.598C177.91 198.19 178.018 197.71 178.018 197.158C178.018 196.594 177.91 196.114 177.694 195.718C177.478 195.322 177.184 195.016 176.812 194.8C176.44 194.584 176.02 194.476 175.552 194.476C175.084 194.476 174.664 194.584 174.292 194.8C173.92 195.016 173.62 195.322 173.392 195.718C173.176 196.114 173.068 196.594 173.068 197.158C173.068 197.71 173.176 198.19 173.392 198.598C173.62 198.994 173.92 199.3 174.292 199.516C174.664 199.732 175.084 199.84 175.552 199.84ZM193.777 202V200.11L193.597 199.696V196.312C193.597 195.712 193.411 195.244 193.039 194.908C192.679 194.572 192.121 194.404 191.365 194.404C190.849 194.404 190.339 194.488 189.835 194.656C189.343 194.812 188.923 195.028 188.575 195.304L187.567 193.342C188.095 192.97 188.731 192.682 189.475 192.478C190.219 192.274 190.975 192.172 191.743 192.172C193.219 192.172 194.365 192.52 195.181 193.216C195.997 193.912 196.405 194.998 196.405 196.474V202H193.777ZM190.825 202.144C190.069 202.144 189.421 202.018 188.881 201.766C188.341 201.502 187.927 201.148 187.639 200.704C187.351 200.26 187.207 199.762 187.207 199.21C187.207 198.634 187.345 198.13 187.621 197.698C187.909 197.266 188.359 196.93 188.971 196.69C189.583 196.438 190.381 196.312 191.365 196.312H193.939V197.95H191.671C191.011 197.95 190.555 198.058 190.303 198.274C190.063 198.49 189.943 198.76 189.943 199.084C189.943 199.444 190.081 199.732 190.357 199.948C190.645 200.152 191.035 200.254 191.527 200.254C191.995 200.254 192.415 200.146 192.787 199.93C193.159 199.702 193.429 199.372 193.597 198.94L194.029 200.236C193.825 200.86 193.453 201.334 192.913 201.658C192.373 201.982 191.677 202.144 190.825 202.144ZM204.242 202V189.4H209.966C211.334 189.4 212.54 189.664 213.584 190.192C214.628 190.708 215.444 191.434 216.032 192.37C216.62 193.306 216.914 194.416 216.914 195.7C216.914 196.972 216.62 198.082 216.032 199.03C215.444 199.966 214.628 200.698 213.584 201.226C212.54 201.742 211.334 202 209.966 202H204.242ZM207.158 199.606H209.822C210.662 199.606 211.388 199.45 212 199.138C212.624 198.814 213.104 198.358 213.44 197.77C213.788 197.182 213.962 196.492 213.962 195.7C213.962 194.896 213.788 194.206 213.44 193.63C213.104 193.042 212.624 192.592 212 192.28C211.388 191.956 210.662 191.794 209.822 191.794H207.158V199.606ZM223.523 202.144C222.491 202.144 221.573 201.928 220.769 201.496C219.977 201.064 219.347 200.476 218.879 199.732C218.423 198.976 218.195 198.118 218.195 197.158C218.195 196.186 218.423 195.328 218.879 194.584C219.347 193.828 219.977 193.24 220.769 192.82C221.573 192.388 222.491 192.172 223.523 192.172C224.543 192.172 225.455 192.388 226.259 192.82C227.063 193.24 227.693 193.822 228.149 194.566C228.605 195.31 228.833 196.174 228.833 197.158C228.833 198.118 228.605 198.976 228.149 199.732C227.693 200.476 227.063 201.064 226.259 201.496C225.455 201.928 224.543 202.144 223.523 202.144ZM223.523 199.84C223.991 199.84 224.411 199.732 224.783 199.516C225.155 199.3 225.449 198.994 225.665 198.598C225.881 198.19 225.989 197.71 225.989 197.158C225.989 196.594 225.881 196.114 225.665 195.718C225.449 195.322 225.155 195.016 224.783 194.8C224.411 194.584 223.991 194.476 223.523 194.476C223.055 194.476 222.635 194.584 222.263 194.8C221.891 195.016 221.591 195.322 221.363 195.718C221.147 196.114 221.039 196.594 221.039 197.158C221.039 197.71 221.147 198.19 221.363 198.598C221.591 198.994 221.891 199.3 222.263 199.516C222.635 199.732 223.055 199.84 223.523 199.84ZM230.908 202V189.4H236.362C237.49 189.4 238.462 189.586 239.278 189.958C240.094 190.318 240.724 190.84 241.168 191.524C241.612 192.208 241.834 193.024 241.834 193.972C241.834 194.908 241.612 195.718 241.168 196.402C240.724 197.086 240.094 197.614 239.278 197.986C238.462 198.346 237.49 198.526 236.362 198.526H232.528L233.824 197.212V202H230.908ZM233.824 197.536L232.528 196.15H236.2C237.1 196.15 237.772 195.958 238.216 195.574C238.66 195.19 238.882 194.656 238.882 193.972C238.882 193.276 238.66 192.736 238.216 192.352C237.772 191.968 237.1 191.776 236.2 191.776H232.528L233.824 190.39V197.536ZM249.57 202V200.11L249.39 199.696V196.312C249.39 195.712 249.204 195.244 248.832 194.908C248.472 194.572 247.914 194.404 247.158 194.404C246.642 194.404 246.132 194.488 245.628 194.656C245.136 194.812 244.716 195.028 244.368 195.304L243.36 193.342C243.888 192.97 244.524 192.682 245.268 192.478C246.012 192.274 246.768 192.172 247.536 192.172C249.012 192.172 250.158 192.52 250.974 193.216C251.79 193.912 252.198 194.998 252.198 196.474V202H249.57ZM246.618 202.144C245.862 202.144 245.214 202.018 244.674 201.766C244.134 201.502 243.72 201.148 243.432 200.704C243.144 200.26 243 199.762 243 199.21C243 198.634 243.138 198.13 243.414 197.698C243.702 197.266 244.152 196.93 244.764 196.69C245.376 196.438 246.174 196.312 247.158 196.312H249.732V197.95H247.464C246.804 197.95 246.348 198.058 246.096 198.274C245.856 198.49 245.736 198.76 245.736 199.084C245.736 199.444 245.874 199.732 246.15 199.948C246.438 200.152 246.828 200.254 247.32 200.254C247.788 200.254 248.208 200.146 248.58 199.93C248.952 199.702 249.222 199.372 249.39 198.94L249.822 200.236C249.618 200.86 249.246 201.334 248.706 201.658C248.166 201.982 247.47 202.144 246.618 202.144ZM255.788 205.636C255.284 205.636 254.786 205.558 254.294 205.402C253.802 205.246 253.4 205.03 253.088 204.754L254.114 202.756C254.33 202.948 254.576 203.098 254.852 203.206C255.14 203.314 255.422 203.368 255.698 203.368C256.094 203.368 256.406 203.272 256.634 203.08C256.874 202.9 257.09 202.594 257.282 202.162L257.786 200.974L258.002 200.668L261.476 192.316H264.176L259.802 202.594C259.49 203.374 259.13 203.986 258.722 204.43C258.326 204.874 257.882 205.186 257.39 205.366C256.91 205.546 256.376 205.636 255.788 205.636ZM257.444 202.378L253.124 192.316H256.022L259.37 200.416L257.444 202.378ZM268.961 202L274.577 189.4H277.457L283.091 202H280.031L275.423 190.876H276.575L271.949 202H268.961ZM271.769 199.3L272.543 197.086H279.023L279.815 199.3H271.769ZM288.792 202.144C287.748 202.144 286.818 201.934 286.002 201.514C285.186 201.082 284.544 200.488 284.076 199.732C283.62 198.976 283.392 198.118 283.392 197.158C283.392 196.186 283.62 195.328 284.076 194.584C284.544 193.828 285.186 193.24 286.002 192.82C286.818 192.388 287.748 192.172 288.792 192.172C289.812 192.172 290.7 192.388 291.456 192.82C292.212 193.24 292.77 193.846 293.13 194.638L290.952 195.808C290.7 195.352 290.382 195.016 289.998 194.8C289.626 194.584 289.218 194.476 288.774 194.476C288.294 194.476 287.862 194.584 287.478 194.8C287.094 195.016 286.788 195.322 286.56 195.718C286.344 196.114 286.236 196.594 286.236 197.158C286.236 197.722 286.344 198.202 286.56 198.598C286.788 198.994 287.094 199.3 287.478 199.516C287.862 199.732 288.294 199.84 288.774 199.84C289.218 199.84 289.626 199.738 289.998 199.534C290.382 199.318 290.7 198.976 290.952 198.508L293.13 199.696C292.77 200.476 292.212 201.082 291.456 201.514C290.7 201.934 289.812 202.144 288.792 202.144ZM299.304 202.144C298.26 202.144 297.33 201.934 296.514 201.514C295.698 201.082 295.056 200.488 294.588 199.732C294.132 198.976 293.904 198.118 293.904 197.158C293.904 196.186 294.132 195.328 294.588 194.584C295.056 193.828 295.698 193.24 296.514 192.82C297.33 192.388 298.26 192.172 299.304 192.172C300.324 192.172 301.212 192.388 301.968 192.82C302.724 193.24 303.282 193.846 303.642 194.638L301.464 195.808C301.212 195.352 300.894 195.016 300.51 194.8C300.138 194.584 299.73 194.476 299.286 194.476C298.806 194.476 298.374 194.584 297.99 194.8C297.606 195.016 297.3 195.322 297.072 195.718C296.856 196.114 296.748 196.594 296.748 197.158C296.748 197.722 296.856 198.202 297.072 198.598C297.3 198.994 297.606 199.3 297.99 199.516C298.374 199.732 298.806 199.84 299.286 199.84C299.73 199.84 300.138 199.738 300.51 199.534C300.894 199.318 301.212 198.976 301.464 198.508L303.642 199.696C303.282 200.476 302.724 201.082 301.968 201.514C301.212 201.934 300.324 202.144 299.304 202.144ZM309.744 202.144C308.712 202.144 307.794 201.928 306.99 201.496C306.198 201.064 305.568 200.476 305.1 199.732C304.644 198.976 304.416 198.118 304.416 197.158C304.416 196.186 304.644 195.328 305.1 194.584C305.568 193.828 306.198 193.24 306.99 192.82C307.794 192.388 308.712 192.172 309.744 192.172C310.764 192.172 311.676 192.388 312.48 192.82C313.284 193.24 313.914 193.822 314.37 194.566C314.826 195.31 315.054 196.174 315.054 197.158C315.054 198.118 314.826 198.976 314.37 199.732C313.914 200.476 313.284 201.064 312.48 201.496C311.676 201.928 310.764 202.144 309.744 202.144ZM309.744 199.84C310.212 199.84 310.632 199.732 311.004 199.516C311.376 199.3 311.67 198.994 311.886 198.598C312.102 198.19 312.21 197.71 312.21 197.158C312.21 196.594 312.102 196.114 311.886 195.718C311.67 195.322 311.376 195.016 311.004 194.8C310.632 194.584 310.212 194.476 309.744 194.476C309.276 194.476 308.856 194.584 308.484 194.8C308.112 195.016 307.812 195.322 307.584 195.718C307.368 196.114 307.26 196.594 307.26 197.158C307.26 197.71 307.368 198.19 307.584 198.598C307.812 198.994 308.112 199.3 308.484 199.516C308.856 199.732 309.276 199.84 309.744 199.84ZM321.017 202.144C320.213 202.144 319.493 201.988 318.857 201.676C318.233 201.364 317.747 200.89 317.399 200.254C317.051 199.606 316.877 198.784 316.877 197.788V192.316H319.685V197.374C319.685 198.178 319.853 198.772 320.189 199.156C320.537 199.528 321.023 199.714 321.647 199.714C322.079 199.714 322.463 199.624 322.799 199.444C323.135 199.252 323.399 198.964 323.591 198.58C323.783 198.184 323.879 197.692 323.879 197.104V192.316H326.687V202H324.023V199.336L324.509 200.11C324.185 200.782 323.705 201.292 323.069 201.64C322.445 201.976 321.761 202.144 321.017 202.144ZM335.174 192.172C335.942 192.172 336.626 192.328 337.226 192.64C337.838 192.94 338.318 193.408 338.666 194.044C339.014 194.668 339.188 195.472 339.188 196.456V202H336.38V196.888C336.38 196.108 336.206 195.532 335.858 195.16C335.522 194.788 335.042 194.602 334.418 194.602C333.974 194.602 333.572 194.698 333.212 194.89C332.864 195.07 332.588 195.352 332.384 195.736C332.192 196.12 332.096 196.612 332.096 197.212V202H329.288V192.316H331.97V194.998L331.466 194.188C331.814 193.54 332.312 193.042 332.96 192.694C333.608 192.346 334.346 192.172 335.174 192.172ZM345.694 202.144C344.554 202.144 343.666 201.856 343.03 201.28C342.394 200.692 342.076 199.822 342.076 198.67V190.174H344.884V198.634C344.884 199.042 344.992 199.36 345.208 199.588C345.424 199.804 345.718 199.912 346.09 199.912C346.534 199.912 346.912 199.792 347.224 199.552L347.98 201.532C347.692 201.736 347.344 201.892 346.936 202C346.54 202.096 346.126 202.144 345.694 202.144ZM340.582 194.692V192.532H347.296V194.692H340.582Z" fill="white"/>
<g clip-path="url(#clip0_410_5230)">
<path d="M191.562 119.5H217.179L217.186 125.125C217.186 125.871 217.638 126.546 218.34 126.844C219.041 127.142 219.856 127.006 220.416 126.5L229.385 118.375C230.205 117.632 230.205 116.368 229.385 115.625L220.416 107.5C219.856 106.994 219.041 106.858 218.34 107.156C217.638 107.454 217.186 108.129 217.186 108.875L217.179 114.5H191.562C190.146 114.5 189 115.617 189 116.93C189 118.242 190.146 119.5 191.562 119.5ZM227.438 134.5H201.821L201.812 128.805C201.812 128.059 201.36 127.384 200.659 127.086C199.963 126.859 199.146 126.992 198.585 127.5L189.617 135.625C188.797 136.367 188.797 137.632 189.617 138.374L198.585 146.499C199.145 147.006 199.96 147.141 200.662 146.844C201.364 146.547 201.812 145.867 201.812 145.125L201.821 139.5H227.438C228.854 139.5 230 138.382 230 137C230 135.618 228.855 134.5 227.438 134.5Z" fill="white"/>
</g>
<circle cx="210" cy="127" r="40.5" stroke="white" stroke-dasharray="2 2"/>
<defs>
<filter id="filter0_d_410_5230" x="0" y="0" width="420" height="310" filterUnits="userSpaceOnUse" color-interpolation-filters="sRGB">
<feFlood flood-opacity="0" result="BackgroundImageFix"/>
<feColorMatrix in="SourceAlpha" type="matrix" values="0 0 0 0 0 0 0 0 0 0 0 0 0 0 0 0 0 0 127 0" result="hardAlpha"/>
<feOffset dy="9"/>
<feGaussianBlur stdDeviation="25"/>
<feComposite in2="hardAlpha" operator="out"/>
<feColorMatrix type="matrix" values="0 0 0 0 0 0 0 0 0 0 0 0 0 0 0 0 0 0 0.1 0"/>
<feBlend mode="normal" in2="BackgroundImageFix" result="effect1_dropShadow_410_5230"/>
<feBlend mode="normal" in="SourceGraphic" in2="effect1_dropShadow_410_5230" result="shape"/>
</filter>
<clipPath id="clip0_410_5230">
<rect width="41" height="40" fill="white" transform="translate(189 107)"/>
</clipPath>
</defs>
</svg>
