<svg width="56" height="35" viewBox="0 0 56 35" fill="none" xmlns="http://www.w3.org/2000/svg">
<path d="M9.1449 34.5593V0.719256H12.7449V34.5593H9.1449ZM10.4409 30.6713C8.4249 30.6713 6.4929 30.4073 4.6449 29.8793C2.7969 29.3273 1.3089 28.6193 0.180899 27.7553L2.1609 23.3633C3.2409 24.1313 4.5129 24.7673 5.9769 25.2713C7.4649 25.7513 8.9649 25.9913 10.4769 25.9913C11.6289 25.9913 12.5529 25.8833 13.2489 25.6673C13.9689 25.4273 14.4969 25.1033 14.8329 24.6953C15.1689 24.2873 15.3369 23.8193 15.3369 23.2913C15.3369 22.6193 15.0729 22.0913 14.5449 21.7073C14.0169 21.2993 13.3209 20.9753 12.4569 20.7353C11.5929 20.4713 10.6329 20.2313 9.5769 20.0153C8.5449 19.7753 7.5009 19.4873 6.4449 19.1513C5.4129 18.8153 4.4649 18.3833 3.6009 17.8553C2.7369 17.3273 2.0289 16.6313 1.4769 15.7673C0.948899 14.9033 0.684899 13.7993 0.684899 12.4553C0.684899 11.0153 1.0689 9.70726 1.8369 8.53126C2.6289 7.33126 3.8049 6.38326 5.3649 5.68726C6.9489 4.96726 8.9289 4.60726 11.3049 4.60726C12.8889 4.60726 14.4489 4.79926 15.9849 5.18326C17.5209 5.54326 18.8769 6.09526 20.0529 6.83926L18.2529 11.2673C17.0769 10.5953 15.9009 10.1033 14.7249 9.79126C13.5489 9.45526 12.3969 9.28726 11.2689 9.28726C10.1409 9.28726 9.2169 9.41926 8.4969 9.68326C7.7769 9.94726 7.2609 10.2953 6.9489 10.7273C6.6369 11.1353 6.4809 11.6153 6.4809 12.1673C6.4809 12.8153 6.7449 13.3433 7.2729 13.7513C7.8009 14.1353 8.4969 14.4473 9.3609 14.6873C10.2249 14.9273 11.1729 15.1673 12.2049 15.4073C13.2609 15.6473 14.3049 15.9233 15.3369 16.2353C16.3929 16.5473 17.3529 16.9673 18.2169 17.4953C19.0809 18.0233 19.7769 18.7193 20.3049 19.5833C20.8569 20.4473 21.1329 21.5393 21.1329 22.8593C21.1329 24.2753 20.7369 25.5713 19.9449 26.7473C19.1529 27.9233 17.9649 28.8713 16.3809 29.5913C14.8209 30.3113 12.8409 30.6713 10.4409 30.6713Z" fill="#B4CD93"/>
<path d="M44.5292 30.6713C42.4652 30.6713 40.6172 30.1673 38.9852 29.1593C37.3532 28.1273 36.0692 26.6393 35.1332 24.6953C34.1972 22.7513 33.7292 20.3993 33.7292 17.6393C33.7292 14.8793 34.1972 12.5273 35.1332 10.5833C36.0692 8.63926 37.3532 7.16326 38.9852 6.15526C40.6172 5.12326 42.4652 4.60726 44.5292 4.60726C46.6172 4.60726 48.4652 5.12326 50.0732 6.15526C51.7052 7.16326 52.9892 8.63926 53.9252 10.5833C54.8612 12.5273 55.3292 14.8793 55.3292 17.6393C55.3292 20.3993 54.8612 22.7513 53.9252 24.6953C52.9892 26.6393 51.7052 28.1273 50.0732 29.1593C48.4652 30.1673 46.6172 30.6713 44.5292 30.6713ZM44.5292 25.7393C45.5132 25.7393 46.3652 25.4633 47.0852 24.9113C47.8292 24.3593 48.4052 23.4833 48.8132 22.2833C49.2452 21.0833 49.4612 19.5353 49.4612 17.6393C49.4612 15.7433 49.2452 14.1953 48.8132 12.9953C48.4052 11.7953 47.8292 10.9193 47.0852 10.3673C46.3652 9.81526 45.5132 9.53926 44.5292 9.53926C43.5692 9.53926 42.7172 9.81526 41.9732 10.3673C41.2532 10.9193 40.6772 11.7953 40.2452 12.9953C39.8372 14.1953 39.6332 15.7433 39.6332 17.6393C39.6332 19.5353 39.8372 21.0833 40.2452 22.2833C40.6772 23.4833 41.2532 24.3593 41.9732 24.9113C42.7172 25.4633 43.5692 25.7393 44.5292 25.7393Z" fill="#BBDEFB"/>
</svg>
