<svg width="114" height="46" viewBox="0 0 114 46" fill="none" xmlns="http://www.w3.org/2000/svg">
<rect x="44.3999" width="69.6" height="46" rx="6" fill="#4CAF50"/>
<path d="M2.46875 34.6899V11.7837H10.3594C12.1406 11.7837 13.5 11.8931 14.4375 12.1118C15.75 12.4139 16.8698 12.9608 17.7969 13.7524C19.0052 14.7733 19.9062 16.0806 20.5 17.6743C21.1042 19.2576 21.4062 21.0701 21.4062 23.1118C21.4062 24.8514 21.2031 26.3931 20.7969 27.7368C20.3906 29.0806 19.8698 30.1951 19.2344 31.0806C18.599 31.9556 17.901 32.6483 17.1406 33.1587C16.3906 33.6587 15.4792 34.0389 14.4062 34.2993C13.3438 34.5597 12.1198 34.6899 10.7344 34.6899H2.46875ZM5.5 31.9868H10.3906C11.901 31.9868 13.0833 31.8462 13.9375 31.5649C14.8021 31.2837 15.4896 30.8879 16 30.3774C16.7188 29.6587 17.276 28.6951 17.6719 27.4868C18.0781 26.2681 18.2812 24.7941 18.2812 23.0649C18.2812 20.6691 17.8854 18.8306 17.0938 17.5493C16.3125 16.2576 15.3594 15.3931 14.2344 14.9556C13.4219 14.6431 12.1146 14.4868 10.3125 14.4868H5.5V31.9868ZM24.1875 26.3931C24.1875 23.3201 25.0417 21.0441 26.75 19.5649C28.1771 18.3358 29.9167 17.7212 31.9688 17.7212C34.25 17.7212 36.1146 18.4712 37.5625 19.9712C39.0104 21.4608 39.7344 23.5233 39.7344 26.1587C39.7344 28.2941 39.4115 29.9764 38.7656 31.2056C38.1302 32.4243 37.1979 33.3722 35.9688 34.0493C34.75 34.7264 33.4167 35.0649 31.9688 35.0649C29.6458 35.0649 27.7656 34.3201 26.3281 32.8306C24.901 31.341 24.1875 29.1951 24.1875 26.3931ZM27.0781 26.3931C27.0781 28.5181 27.5417 30.1118 28.4688 31.1743C29.3958 32.2264 30.5625 32.7524 31.9688 32.7524C33.3646 32.7524 34.526 32.2212 35.4531 31.1587C36.3802 30.0962 36.8438 28.4764 36.8438 26.2993C36.8438 24.2472 36.375 22.6951 35.4375 21.6431C34.5104 20.5806 33.3542 20.0493 31.9688 20.0493C30.5625 20.0493 29.3958 20.5754 28.4688 21.6274C27.5417 22.6795 27.0781 24.2681 27.0781 26.3931Z" fill="#4CAF50"/>
<path d="M52.3125 34.6899V11.7837H60.9531C62.474 11.7837 63.6354 11.8566 64.4375 12.0024C65.5625 12.1899 66.5052 12.5493 67.2656 13.0806C68.026 13.6014 68.6354 14.3358 69.0938 15.2837C69.5625 16.2316 69.7969 17.2733 69.7969 18.4087C69.7969 20.3566 69.1771 22.0076 67.9375 23.3618C66.6979 24.7056 64.4583 25.3774 61.2188 25.3774H55.3438V34.6899H52.3125ZM55.3438 22.6743H61.2656C63.224 22.6743 64.6146 22.3097 65.4375 21.5806C66.2604 20.8514 66.6719 19.8254 66.6719 18.5024C66.6719 17.5441 66.4271 16.7264 65.9375 16.0493C65.4583 15.3618 64.8229 14.9087 64.0312 14.6899C63.5208 14.5545 62.5781 14.4868 61.2031 14.4868H55.3438V22.6743ZM84.125 32.6431C83.0833 33.5285 82.0781 34.1535 81.1094 34.5181C80.151 34.8826 79.1198 35.0649 78.0156 35.0649C76.1927 35.0649 74.7917 34.6222 73.8125 33.7368C72.8333 32.841 72.3438 31.7004 72.3438 30.3149C72.3438 29.5024 72.526 28.7629 72.8906 28.0962C73.2656 27.4191 73.75 26.8774 74.3438 26.4712C74.9479 26.0649 75.625 25.7576 76.375 25.5493C76.9271 25.4035 77.7604 25.2629 78.875 25.1274C81.1458 24.8566 82.8177 24.5337 83.8906 24.1587C83.901 23.7733 83.9062 23.5285 83.9062 23.4243C83.9062 22.2785 83.6406 21.4712 83.1094 21.0024C82.3906 20.367 81.3229 20.0493 79.9062 20.0493C78.5833 20.0493 77.6042 20.2837 76.9688 20.7524C76.3438 21.2108 75.8802 22.0285 75.5781 23.2056L72.8281 22.8306C73.0781 21.6535 73.4896 20.7056 74.0625 19.9868C74.6354 19.2576 75.4635 18.7004 76.5469 18.3149C77.6302 17.9191 78.8854 17.7212 80.3125 17.7212C81.7292 17.7212 82.8802 17.8879 83.7656 18.2212C84.651 18.5545 85.3021 18.9764 85.7188 19.4868C86.1354 19.9868 86.4271 20.6222 86.5938 21.3931C86.6875 21.8722 86.7344 22.7368 86.7344 23.9868V27.7368C86.7344 30.3514 86.7917 32.0076 86.9062 32.7056C87.0312 33.3931 87.2708 34.0545 87.625 34.6899H84.6875C84.3958 34.1066 84.2083 33.4243 84.125 32.6431ZM83.8906 26.3618C82.8698 26.7785 81.3385 27.1326 79.2969 27.4243C78.1406 27.591 77.3229 27.7785 76.8438 27.9868C76.3646 28.1951 75.9948 28.5024 75.7344 28.9087C75.474 29.3045 75.3438 29.7472 75.3438 30.2368C75.3438 30.9868 75.625 31.6118 76.1875 32.1118C76.7604 32.6118 77.5938 32.8618 78.6875 32.8618C79.7708 32.8618 80.7344 32.6274 81.5781 32.1587C82.4219 31.6795 83.0417 31.0285 83.4375 30.2056C83.7396 29.5701 83.8906 28.6326 83.8906 27.3931V26.3618ZM90.9844 41.0806L90.6719 38.4399C91.2865 38.6066 91.8229 38.6899 92.2812 38.6899C92.9062 38.6899 93.4062 38.5858 93.7812 38.3774C94.1562 38.1691 94.4635 37.8774 94.7031 37.5024C94.8802 37.2212 95.1667 36.5233 95.5625 35.4087C95.6146 35.2524 95.6979 35.0233 95.8125 34.7212L89.5156 18.0962H92.5469L96 27.7056C96.4479 28.9243 96.849 30.2056 97.2031 31.5493C97.526 30.2576 97.9115 28.9972 98.3594 27.7681L101.906 18.0962H104.719L98.4062 34.9712C97.7292 36.7941 97.2031 38.0493 96.8281 38.7368C96.3281 39.6639 95.7552 40.341 95.1094 40.7681C94.4635 41.2056 93.6927 41.4243 92.7969 41.4243C92.2552 41.4243 91.651 41.3097 90.9844 41.0806Z" fill="white"/>
</svg>
