<svg width="82" height="82" viewBox="0 0 82 82" fill="none" xmlns="http://www.w3.org/2000/svg">
<path d="M64.2143 41C64.2143 43.0039 62.615 44.6261 60.6429 44.6261H44.5715V60.9386C44.5715 62.9426 42.9722 64.5625 41.0001 64.5625C39.028 64.5625 37.4286 62.9426 37.4286 60.9386V44.6261H21.3572C19.3851 44.6261 17.7858 43.0039 17.7858 41C17.7858 38.9961 19.3851 37.3761 21.3572 37.3761H37.4286V21.0636C37.4286 19.0597 39.028 17.4375 41.0001 17.4375C42.9722 17.4375 44.5715 19.0597 44.5715 21.0636V37.3761H60.6429C62.6184 37.375 64.2143 38.9949 64.2143 41Z" fill="#808080"/>
<circle cx="41" cy="41" r="40.5" stroke="#808080" stroke-dasharray="2 2"/>
</svg>
