<svg width="420" height="310" viewBox="0 0 420 310" fill="none" xmlns="http://www.w3.org/2000/svg">
<g filter="url(#filter0_d_410_5240)">
<rect x="50" y="41" width="320" height="210" rx="40" fill="#2196F3"/>
</g>
<path d="M162.494 202V189.4H167.948C169.076 189.4 170.048 189.586 170.864 189.958C171.68 190.318 172.31 190.84 172.754 191.524C173.198 192.208 173.42 193.024 173.42 193.972C173.42 194.908 173.198 195.718 172.754 196.402C172.31 197.074 171.68 197.59 170.864 197.95C170.048 198.31 169.076 198.49 167.948 198.49H164.114L165.41 197.212V202H162.494ZM170.504 202L167.354 197.428H170.468L173.654 202H170.504ZM165.41 197.536L164.114 196.168H167.786C168.686 196.168 169.358 195.976 169.802 195.592C170.246 195.196 170.468 194.656 170.468 193.972C170.468 193.276 170.246 192.736 169.802 192.352C169.358 191.968 168.686 191.776 167.786 191.776H164.114L165.41 190.39V197.536ZM180.338 202.144C179.234 202.144 178.262 201.928 177.422 201.496C176.594 201.064 175.952 200.476 175.496 199.732C175.04 198.976 174.812 198.118 174.812 197.158C174.812 196.186 175.034 195.328 175.478 194.584C175.934 193.828 176.552 193.24 177.332 192.82C178.112 192.388 178.994 192.172 179.978 192.172C180.926 192.172 181.778 192.376 182.534 192.784C183.302 193.18 183.908 193.756 184.352 194.512C184.796 195.256 185.018 196.15 185.018 197.194C185.018 197.302 185.012 197.428 185 197.572C184.988 197.704 184.976 197.83 184.964 197.95H177.098V196.312H183.488L182.408 196.798C182.408 196.294 182.306 195.856 182.102 195.484C181.898 195.112 181.616 194.824 181.256 194.62C180.896 194.404 180.476 194.296 179.996 194.296C179.516 194.296 179.09 194.404 178.718 194.62C178.358 194.824 178.076 195.118 177.872 195.502C177.668 195.874 177.566 196.318 177.566 196.834V197.266C177.566 197.794 177.68 198.262 177.908 198.67C178.148 199.066 178.478 199.372 178.898 199.588C179.33 199.792 179.834 199.894 180.41 199.894C180.926 199.894 181.376 199.816 181.76 199.66C182.156 199.504 182.516 199.27 182.84 198.958L184.334 200.578C183.89 201.082 183.332 201.472 182.66 201.748C181.988 202.012 181.214 202.144 180.338 202.144ZM191.568 202.144C190.524 202.144 189.594 201.934 188.778 201.514C187.962 201.082 187.32 200.488 186.852 199.732C186.396 198.976 186.168 198.118 186.168 197.158C186.168 196.186 186.396 195.328 186.852 194.584C187.32 193.828 187.962 193.24 188.778 192.82C189.594 192.388 190.524 192.172 191.568 192.172C192.588 192.172 193.476 192.388 194.232 192.82C194.988 193.24 195.546 193.846 195.906 194.638L193.728 195.808C193.476 195.352 193.158 195.016 192.774 194.8C192.402 194.584 191.994 194.476 191.55 194.476C191.07 194.476 190.638 194.584 190.254 194.8C189.87 195.016 189.564 195.322 189.336 195.718C189.12 196.114 189.012 196.594 189.012 197.158C189.012 197.722 189.12 198.202 189.336 198.598C189.564 198.994 189.87 199.3 190.254 199.516C190.638 199.732 191.07 199.84 191.55 199.84C191.994 199.84 192.402 199.738 192.774 199.534C193.158 199.318 193.476 198.976 193.728 198.508L195.906 199.696C195.546 200.476 194.988 201.082 194.232 201.514C193.476 201.934 192.588 202.144 191.568 202.144ZM203.356 192.172C204.124 192.172 204.808 192.328 205.408 192.64C206.02 192.94 206.5 193.408 206.848 194.044C207.196 194.668 207.37 195.472 207.37 196.456V202H204.562V196.888C204.562 196.108 204.388 195.532 204.04 195.16C203.704 194.788 203.224 194.602 202.6 194.602C202.156 194.602 201.754 194.698 201.394 194.89C201.046 195.07 200.77 195.352 200.566 195.736C200.374 196.12 200.278 196.612 200.278 197.212V202H197.47V188.644H200.278V194.998L199.648 194.188C199.996 193.54 200.494 193.042 201.142 192.694C201.79 192.346 202.528 192.172 203.356 192.172ZM215.855 202V200.11L215.675 199.696V196.312C215.675 195.712 215.489 195.244 215.117 194.908C214.757 194.572 214.199 194.404 213.443 194.404C212.927 194.404 212.417 194.488 211.913 194.656C211.421 194.812 211.001 195.028 210.653 195.304L209.645 193.342C210.173 192.97 210.809 192.682 211.553 192.478C212.297 192.274 213.053 192.172 213.821 192.172C215.297 192.172 216.443 192.52 217.259 193.216C218.075 193.912 218.483 194.998 218.483 196.474V202H215.855ZM212.903 202.144C212.147 202.144 211.499 202.018 210.959 201.766C210.419 201.502 210.005 201.148 209.717 200.704C209.429 200.26 209.285 199.762 209.285 199.21C209.285 198.634 209.423 198.13 209.699 197.698C209.987 197.266 210.437 196.93 211.049 196.69C211.661 196.438 212.459 196.312 213.443 196.312H216.017V197.95H213.749C213.089 197.95 212.633 198.058 212.381 198.274C212.141 198.49 212.021 198.76 212.021 199.084C212.021 199.444 212.159 199.732 212.435 199.948C212.723 200.152 213.113 200.254 213.605 200.254C214.073 200.254 214.493 200.146 214.865 199.93C215.237 199.702 215.507 199.372 215.675 198.94L216.107 200.236C215.903 200.86 215.531 201.334 214.991 201.658C214.451 201.982 213.755 202.144 212.903 202.144ZM221.025 202V192.316H223.707V195.052L223.329 194.26C223.617 193.576 224.079 193.06 224.715 192.712C225.351 192.352 226.125 192.172 227.037 192.172V194.764C226.917 194.752 226.809 194.746 226.713 194.746C226.617 194.734 226.515 194.728 226.407 194.728C225.639 194.728 225.015 194.95 224.535 195.394C224.067 195.826 223.833 196.504 223.833 197.428V202H221.025ZM233.19 205.636C232.278 205.636 231.396 205.522 230.544 205.294C229.704 205.078 229.002 204.748 228.438 204.304L229.554 202.288C229.962 202.624 230.478 202.888 231.102 203.08C231.738 203.284 232.362 203.386 232.974 203.386C233.97 203.386 234.69 203.164 235.134 202.72C235.59 202.276 235.818 201.616 235.818 200.74V199.282L235.998 196.852L235.962 194.404V192.316H238.626V200.38C238.626 202.18 238.158 203.506 237.222 204.358C236.286 205.21 234.942 205.636 233.19 205.636ZM232.758 201.532C231.858 201.532 231.042 201.34 230.31 200.956C229.59 200.56 229.008 200.014 228.564 199.318C228.132 198.61 227.916 197.788 227.916 196.852C227.916 195.904 228.132 195.082 228.564 194.386C229.008 193.678 229.59 193.132 230.31 192.748C231.042 192.364 231.858 192.172 232.758 192.172C233.574 192.172 234.294 192.34 234.918 192.676C235.542 193 236.028 193.51 236.376 194.206C236.724 194.89 236.898 195.772 236.898 196.852C236.898 197.92 236.724 198.802 236.376 199.498C236.028 200.182 235.542 200.692 234.918 201.028C234.294 201.364 233.574 201.532 232.758 201.532ZM233.316 199.228C233.808 199.228 234.246 199.132 234.63 198.94C235.014 198.736 235.314 198.454 235.53 198.094C235.746 197.734 235.854 197.32 235.854 196.852C235.854 196.372 235.746 195.958 235.53 195.61C235.314 195.25 235.014 194.974 234.63 194.782C234.246 194.578 233.808 194.476 233.316 194.476C232.824 194.476 232.386 194.578 232.002 194.782C231.618 194.974 231.312 195.25 231.084 195.61C230.868 195.958 230.76 196.372 230.76 196.852C230.76 197.32 230.868 197.734 231.084 198.094C231.312 198.454 231.618 198.736 232.002 198.94C232.386 199.132 232.824 199.228 233.316 199.228ZM246.045 202.144C244.941 202.144 243.969 201.928 243.129 201.496C242.301 201.064 241.659 200.476 241.203 199.732C240.747 198.976 240.519 198.118 240.519 197.158C240.519 196.186 240.741 195.328 241.185 194.584C241.641 193.828 242.259 193.24 243.039 192.82C243.819 192.388 244.701 192.172 245.685 192.172C246.633 192.172 247.485 192.376 248.241 192.784C249.009 193.18 249.615 193.756 250.059 194.512C250.503 195.256 250.725 196.15 250.725 197.194C250.725 197.302 250.719 197.428 250.707 197.572C250.695 197.704 250.683 197.83 250.671 197.95H242.805V196.312H249.195L248.115 196.798C248.115 196.294 248.013 195.856 247.809 195.484C247.605 195.112 247.323 194.824 246.963 194.62C246.603 194.404 246.183 194.296 245.703 194.296C245.223 194.296 244.797 194.404 244.425 194.62C244.065 194.824 243.783 195.118 243.579 195.502C243.375 195.874 243.273 196.318 243.273 196.834V197.266C243.273 197.794 243.387 198.262 243.615 198.67C243.855 199.066 244.185 199.372 244.605 199.588C245.037 199.792 245.541 199.894 246.117 199.894C246.633 199.894 247.083 199.816 247.467 199.66C247.863 199.504 248.223 199.27 248.547 198.958L250.041 200.578C249.597 201.082 249.039 201.472 248.367 201.748C247.695 202.012 246.921 202.144 246.045 202.144Z" fill="white"/>
<path d="M204.016 107.177C204.641 106.941 205.36 106.941 205.985 107.177L223.485 113.74C224.579 114.15 225.189 115.176 224.946 116.188C224.712 117.206 223.688 117.876 222.431 117.938V118.484C222.431 119.394 221.665 120.125 220.556 120.125H189.305C188.339 120.125 187.43 119.394 187.43 118.484V117.938C186.314 117.876 185.29 117.206 185.051 116.188C184.813 115.176 185.424 114.15 186.515 113.74L204.016 107.177ZM205.001 115.75C206.383 115.75 207.501 114.772 207.501 113.563C207.501 112.355 206.383 111.375 205.001 111.375C203.618 111.375 202.501 112.355 202.501 113.563C202.501 114.772 203.618 115.75 205.001 115.75ZM194.93 135.437H198.055V122.313H203.055V135.437H206.876V122.313H211.876V135.437H215.001V122.313H220.001V135.731C220.048 135.752 220.095 135.718 220.142 135.807L223.892 137.994C224.806 138.527 225.212 139.525 224.892 140.448C224.571 141.371 223.603 142 222.501 142H187.43C186.399 142 185.427 141.371 185.107 140.448C184.788 139.525 185.197 138.527 186.114 137.994L189.864 135.807C189.908 135.718 189.954 135.752 189.93 135.731V122.313H194.93V135.437Z" fill="white"/>
<circle cx="206" cy="127" r="40.5" stroke="white" stroke-dasharray="2 2"/>
<defs>
<filter id="filter0_d_410_5240" x="0" y="0" width="420" height="310" filterUnits="userSpaceOnUse" color-interpolation-filters="sRGB">
<feFlood flood-opacity="0" result="BackgroundImageFix"/>
<feColorMatrix in="SourceAlpha" type="matrix" values="0 0 0 0 0 0 0 0 0 0 0 0 0 0 0 0 0 0 127 0" result="hardAlpha"/>
<feOffset dy="9"/>
<feGaussianBlur stdDeviation="25"/>
<feComposite in2="hardAlpha" operator="out"/>
<feColorMatrix type="matrix" values="0 0 0 0 0 0 0 0 0 0 0 0 0 0 0 0 0 0 0.1 0"/>
<feBlend mode="normal" in2="BackgroundImageFix" result="effect1_dropShadow_410_5240"/>
<feBlend mode="normal" in="SourceGraphic" in2="effect1_dropShadow_410_5240" result="shape"/>
</filter>
</defs>
</svg>
