<svg width="418" height="310" viewBox="0 0 418 310" fill="none" xmlns="http://www.w3.org/2000/svg">
<g filter="url(#filter0_d_851_4260)">
<rect x="50" y="41" width="318" height="210" rx="40" fill="#2196F3"/>
</g>
<path d="M262.973 143.062V174H155.57V143.062H181.621V151.57H170.652V163.172H246.977V151.57H238.293V143.062H262.973ZM164.254 117.926V75H190.762V84.1652C195.332 85.6348 199.034 88.5352 200.634 92.4023H234.18V102.457V159.305H185.277V136.334C184.82 136.411 184.592 136.411 184.363 136.411C183.861 136.411 183.541 136.334 183.312 136.334C182.901 136.218 182.352 136.063 182.032 135.869C181.575 135.599 181.164 135.173 180.844 134.825C180.616 134.477 180.433 134.052 180.341 133.743C180.25 133.472 180.296 133.124 180.296 132.776V114.871C180.296 114.136 179.427 113.401 178.468 113.401C177.599 113.401 176.64 114.02 176.64 114.871V129.063C176.182 129.063 175.908 129.063 175.68 128.986C174.263 128.715 172.938 127.903 172.481 126.743C172.252 126.356 172.069 125.853 172.069 125.389V113.401C172.069 112.666 171.429 111.932 170.47 111.932C169.601 111.932 168.87 112.55 168.87 113.401V121.638C166.539 121.638 164.254 120.014 164.254 117.926ZM200.359 126.047H202.645C203.102 128.367 204.793 129.295 206.712 129.295C208.632 129.295 209.911 128.29 210.78 126.279C211.511 124.809 211.877 124.113 212.791 124.113C213.522 124.113 214.162 124.732 214.162 125.854C214.162 127.014 213.75 127.787 213.522 128.29L215.99 128.87C216.401 128.212 216.721 127.207 216.721 126.047H218.686V124.5H216.63C216.173 122.566 214.619 121.484 212.654 121.484C210.643 121.484 209.363 122.837 208.586 124.809C207.946 126.24 207.489 126.782 206.575 126.782C205.661 126.782 205.067 126.085 205.067 124.887C205.067 123.727 205.478 122.566 205.935 121.909L203.376 121.329C203.056 121.948 202.599 123.379 202.599 124.539H200.359V126.047ZM188.934 150.062C192.544 150.952 195.423 153.388 196.52 156.482L223.394 156.443C224.491 153.388 227.37 150.952 230.98 150.062V102.07C227.324 101.142 224.399 98.6672 223.348 95.5348H223.257V95.4961H223.165V95.5348L201.365 95.5734C201.365 95.9602 201.411 113.053 201.411 118.506C203.513 116.727 206.392 115.644 209.591 115.644C215.99 115.644 221.154 120.053 221.154 125.428C221.154 130.804 215.944 135.212 209.591 135.212C203.239 135.212 198.029 130.804 198.029 125.428C198.029 124.848 198.074 124.268 198.211 123.688C198.074 123.727 197.983 123.765 197.891 123.765C197.8 123.765 197.8 123.765 197.8 123.765C197.526 123.765 197.206 123.843 196.977 123.843C194.509 123.843 192.498 122.141 192.498 120.091C192.498 119.821 192.544 106.672 192.544 106.672C192.544 105.938 191.722 105.203 190.762 105.203C189.939 105.203 189.436 105.744 188.979 106.479V150.062H188.934Z" fill="black"/>
<path d="M165.494 208V195.4H170.948C172.076 195.4 173.048 195.586 173.864 195.958C174.68 196.318 175.31 196.84 175.754 197.524C176.198 198.208 176.42 199.024 176.42 199.972C176.42 200.908 176.198 201.718 175.754 202.402C175.31 203.074 174.68 203.59 173.864 203.95C173.048 204.31 172.076 204.49 170.948 204.49H167.114L168.41 203.212V208H165.494ZM173.504 208L170.354 203.428H173.468L176.654 208H173.504ZM168.41 203.536L167.114 202.168H170.786C171.686 202.168 172.358 201.976 172.802 201.592C173.246 201.196 173.468 200.656 173.468 199.972C173.468 199.276 173.246 198.736 172.802 198.352C172.358 197.968 171.686 197.776 170.786 197.776H167.114L168.41 196.39V203.536ZM183.338 208.144C182.234 208.144 181.262 207.928 180.422 207.496C179.594 207.064 178.952 206.476 178.496 205.732C178.04 204.976 177.812 204.118 177.812 203.158C177.812 202.186 178.034 201.328 178.478 200.584C178.934 199.828 179.552 199.24 180.332 198.82C181.112 198.388 181.994 198.172 182.978 198.172C183.926 198.172 184.778 198.376 185.534 198.784C186.302 199.18 186.908 199.756 187.352 200.512C187.796 201.256 188.018 202.15 188.018 203.194C188.018 203.302 188.012 203.428 188 203.572C187.988 203.704 187.976 203.83 187.964 203.95H180.098V202.312H186.488L185.408 202.798C185.408 202.294 185.306 201.856 185.102 201.484C184.898 201.112 184.616 200.824 184.256 200.62C183.896 200.404 183.476 200.296 182.996 200.296C182.516 200.296 182.09 200.404 181.718 200.62C181.358 200.824 181.076 201.118 180.872 201.502C180.668 201.874 180.566 202.318 180.566 202.834V203.266C180.566 203.794 180.68 204.262 180.908 204.67C181.148 205.066 181.478 205.372 181.898 205.588C182.33 205.792 182.834 205.894 183.41 205.894C183.926 205.894 184.376 205.816 184.76 205.66C185.156 205.504 185.516 205.27 185.84 204.958L187.334 206.578C186.89 207.082 186.332 207.472 185.66 207.748C184.988 208.012 184.214 208.144 183.338 208.144ZM194.568 208.144C193.524 208.144 192.594 207.934 191.778 207.514C190.962 207.082 190.32 206.488 189.852 205.732C189.396 204.976 189.168 204.118 189.168 203.158C189.168 202.186 189.396 201.328 189.852 200.584C190.32 199.828 190.962 199.24 191.778 198.82C192.594 198.388 193.524 198.172 194.568 198.172C195.588 198.172 196.476 198.388 197.232 198.82C197.988 199.24 198.546 199.846 198.906 200.638L196.728 201.808C196.476 201.352 196.158 201.016 195.774 200.8C195.402 200.584 194.994 200.476 194.55 200.476C194.07 200.476 193.638 200.584 193.254 200.8C192.87 201.016 192.564 201.322 192.336 201.718C192.12 202.114 192.012 202.594 192.012 203.158C192.012 203.722 192.12 204.202 192.336 204.598C192.564 204.994 192.87 205.3 193.254 205.516C193.638 205.732 194.07 205.84 194.55 205.84C194.994 205.84 195.402 205.738 195.774 205.534C196.158 205.318 196.476 204.976 196.728 204.508L198.906 205.696C198.546 206.476 197.988 207.082 197.232 207.514C196.476 207.934 195.588 208.144 194.568 208.144ZM206.356 198.172C207.124 198.172 207.808 198.328 208.408 198.64C209.02 198.94 209.5 199.408 209.848 200.044C210.196 200.668 210.37 201.472 210.37 202.456V208H207.562V202.888C207.562 202.108 207.388 201.532 207.04 201.16C206.704 200.788 206.224 200.602 205.6 200.602C205.156 200.602 204.754 200.698 204.394 200.89C204.046 201.07 203.77 201.352 203.566 201.736C203.374 202.12 203.278 202.612 203.278 203.212V208H200.47V194.644H203.278V200.998L202.648 200.188C202.996 199.54 203.494 199.042 204.142 198.694C204.79 198.346 205.528 198.172 206.356 198.172ZM218.855 208V206.11L218.675 205.696V202.312C218.675 201.712 218.489 201.244 218.117 200.908C217.757 200.572 217.199 200.404 216.443 200.404C215.927 200.404 215.417 200.488 214.913 200.656C214.421 200.812 214.001 201.028 213.653 201.304L212.645 199.342C213.173 198.97 213.809 198.682 214.553 198.478C215.297 198.274 216.053 198.172 216.821 198.172C218.297 198.172 219.443 198.52 220.259 199.216C221.075 199.912 221.483 200.998 221.483 202.474V208H218.855ZM215.903 208.144C215.147 208.144 214.499 208.018 213.959 207.766C213.419 207.502 213.005 207.148 212.717 206.704C212.429 206.26 212.285 205.762 212.285 205.21C212.285 204.634 212.423 204.13 212.699 203.698C212.987 203.266 213.437 202.93 214.049 202.69C214.661 202.438 215.459 202.312 216.443 202.312H219.017V203.95H216.749C216.089 203.95 215.633 204.058 215.381 204.274C215.141 204.49 215.021 204.76 215.021 205.084C215.021 205.444 215.159 205.732 215.435 205.948C215.723 206.152 216.113 206.254 216.605 206.254C217.073 206.254 217.493 206.146 217.865 205.93C218.237 205.702 218.507 205.372 218.675 204.94L219.107 206.236C218.903 206.86 218.531 207.334 217.991 207.658C217.451 207.982 216.755 208.144 215.903 208.144ZM224.025 208V198.316H226.707V201.052L226.329 200.26C226.617 199.576 227.079 199.06 227.715 198.712C228.351 198.352 229.125 198.172 230.037 198.172V200.764C229.917 200.752 229.809 200.746 229.713 200.746C229.617 200.734 229.515 200.728 229.407 200.728C228.639 200.728 228.015 200.95 227.535 201.394C227.067 201.826 226.833 202.504 226.833 203.428V208H224.025ZM236.19 211.636C235.278 211.636 234.396 211.522 233.544 211.294C232.704 211.078 232.002 210.748 231.438 210.304L232.554 208.288C232.962 208.624 233.478 208.888 234.102 209.08C234.738 209.284 235.362 209.386 235.974 209.386C236.97 209.386 237.69 209.164 238.134 208.72C238.59 208.276 238.818 207.616 238.818 206.74V205.282L238.998 202.852L238.962 200.404V198.316H241.626V206.38C241.626 208.18 241.158 209.506 240.222 210.358C239.286 211.21 237.942 211.636 236.19 211.636ZM235.758 207.532C234.858 207.532 234.042 207.34 233.31 206.956C232.59 206.56 232.008 206.014 231.564 205.318C231.132 204.61 230.916 203.788 230.916 202.852C230.916 201.904 231.132 201.082 231.564 200.386C232.008 199.678 232.59 199.132 233.31 198.748C234.042 198.364 234.858 198.172 235.758 198.172C236.574 198.172 237.294 198.34 237.918 198.676C238.542 199 239.028 199.51 239.376 200.206C239.724 200.89 239.898 201.772 239.898 202.852C239.898 203.92 239.724 204.802 239.376 205.498C239.028 206.182 238.542 206.692 237.918 207.028C237.294 207.364 236.574 207.532 235.758 207.532ZM236.316 205.228C236.808 205.228 237.246 205.132 237.63 204.94C238.014 204.736 238.314 204.454 238.53 204.094C238.746 203.734 238.854 203.32 238.854 202.852C238.854 202.372 238.746 201.958 238.53 201.61C238.314 201.25 238.014 200.974 237.63 200.782C237.246 200.578 236.808 200.476 236.316 200.476C235.824 200.476 235.386 200.578 235.002 200.782C234.618 200.974 234.312 201.25 234.084 201.61C233.868 201.958 233.76 202.372 233.76 202.852C233.76 203.32 233.868 203.734 234.084 204.094C234.312 204.454 234.618 204.736 235.002 204.94C235.386 205.132 235.824 205.228 236.316 205.228ZM249.045 208.144C247.941 208.144 246.969 207.928 246.129 207.496C245.301 207.064 244.659 206.476 244.203 205.732C243.747 204.976 243.519 204.118 243.519 203.158C243.519 202.186 243.741 201.328 244.185 200.584C244.641 199.828 245.259 199.24 246.039 198.82C246.819 198.388 247.701 198.172 248.685 198.172C249.633 198.172 250.485 198.376 251.241 198.784C252.009 199.18 252.615 199.756 253.059 200.512C253.503 201.256 253.725 202.15 253.725 203.194C253.725 203.302 253.719 203.428 253.707 203.572C253.695 203.704 253.683 203.83 253.671 203.95H245.805V202.312H252.195L251.115 202.798C251.115 202.294 251.013 201.856 250.809 201.484C250.605 201.112 250.323 200.824 249.963 200.62C249.603 200.404 249.183 200.296 248.703 200.296C248.223 200.296 247.797 200.404 247.425 200.62C247.065 200.824 246.783 201.118 246.579 201.502C246.375 201.874 246.273 202.318 246.273 202.834V203.266C246.273 203.794 246.387 204.262 246.615 204.67C246.855 205.066 247.185 205.372 247.605 205.588C248.037 205.792 248.541 205.894 249.117 205.894C249.633 205.894 250.083 205.816 250.467 205.66C250.863 205.504 251.223 205.27 251.547 204.958L253.041 206.578C252.597 207.082 252.039 207.472 251.367 207.748C250.695 208.012 249.921 208.144 249.045 208.144Z" fill="white"/>
<defs>
<filter id="filter0_d_851_4260" x="0" y="0" width="418" height="310" filterUnits="userSpaceOnUse" color-interpolation-filters="sRGB">
<feFlood flood-opacity="0" result="BackgroundImageFix"/>
<feColorMatrix in="SourceAlpha" type="matrix" values="0 0 0 0 0 0 0 0 0 0 0 0 0 0 0 0 0 0 127 0" result="hardAlpha"/>
<feOffset dy="9"/>
<feGaussianBlur stdDeviation="25"/>
<feComposite in2="hardAlpha" operator="out"/>
<feColorMatrix type="matrix" values="0 0 0 0 0 0 0 0 0 0 0 0 0 0 0 0 0 0 0.1 0"/>
<feBlend mode="normal" in2="BackgroundImageFix" result="effect1_dropShadow_851_4260"/>
<feBlend mode="normal" in="SourceGraphic" in2="effect1_dropShadow_851_4260" result="shape"/>
</filter>
</defs>
</svg>
