<svg width="43" height="41" viewBox="0 0 43 41" fill="none" xmlns="http://www.w3.org/2000/svg">
<g clip-path="url(#clip0_395_5819)">
<path d="M11.109 17.1875H26.0005L26.0042 20.4219C26.0042 20.8508 26.2673 21.239 26.675 21.4102C27.0825 21.5814 27.5562 21.5035 27.882 21.2123L33.0957 16.5404C33.5723 16.1136 33.5723 15.3863 33.0957 14.9596L27.882 10.2877C27.5565 9.99644 27.0827 9.91859 26.675 10.0897C26.2673 10.2611 26.0042 10.6494 26.0042 11.078L26.0005 14.3125H11.109C10.2855 14.3125 9.61938 14.9549 9.61938 15.7096C9.61938 16.4643 10.2855 17.1875 11.109 17.1875ZM31.9636 25.8125H17.0721L17.0675 22.5377C17.0675 22.1089 16.8044 21.7206 16.3967 21.5494C15.9921 21.4192 15.5173 21.4955 15.1915 21.7875L9.97782 26.4594C9.50115 26.8862 9.50115 27.6135 9.97782 28.0402L15.1915 32.7121C15.517 33.0034 15.9907 33.0813 16.3985 32.91C16.8068 32.7395 17.0675 32.3487 17.0675 31.9219L17.0721 28.6875H31.9636C32.7871 28.6875 33.4532 28.0447 33.4532 27.25C33.4532 26.4554 32.7876 25.8125 31.9636 25.8125Z" fill="#B4CD93"/>
</g>
<path d="M42.2795 20.5C42.2795 31.5291 33.0094 40.5 21.5363 40.5C10.0632 40.5 0.793091 31.5291 0.793091 20.5C0.793091 9.47094 10.0632 0.5 21.5363 0.5C33.0094 0.5 42.2795 9.47094 42.2795 20.5Z" stroke="#808080"/>
<defs>
<clipPath id="clip0_395_5819">
<rect width="23.8338" height="23" fill="white" transform="translate(9.61938 10)"/>
</clipPath>
</defs>
</svg>
