<svg width="40" height="35" viewBox="0 0 40 35" fill="none" xmlns="http://www.w3.org/2000/svg">
<path d="M19.0163 0.176854C19.6413 -0.0589514 20.36 -0.0589514 20.985 0.176854L38.4853 6.73956C39.5791 7.1504 40.1885 8.17579 39.9463 9.1875C39.7119 10.2061 38.6885 10.876 37.4306 10.9375V11.4844C37.4306 12.3936 36.665 13.125 35.5556 13.125H4.30507C3.33943 13.125 2.43004 12.3936 2.43004 11.4844V10.9375C1.31361 10.876 0.289998 10.2061 0.0513068 9.1875C-0.187354 8.17579 0.424454 7.1504 1.51518 6.73956L19.0163 0.176854ZM20.0007 8.75001C21.3835 8.75001 22.5007 7.77247 22.5007 6.56251C22.5007 5.3546 21.3835 4.37501 20.0007 4.37501C18.6178 4.37501 17.5006 5.3546 17.5006 6.56251C17.5006 7.77247 18.6178 8.75001 20.0007 8.75001ZM9.93017 28.4375H13.0552V15.3125H18.0553V28.4375H21.8757V15.3125H26.8758V28.4375H30.0008V15.3125H35.0009V28.7314C35.0478 28.752 35.0947 28.7178 35.1415 28.8066L38.8916 30.9941C39.8057 31.5273 40.2119 32.5254 39.8916 33.4482C39.5713 34.3711 38.6025 35 37.501 35H2.43004C1.39877 35 0.42672 34.3711 0.107495 33.4482C-0.211807 32.5254 0.196794 31.5273 1.11361 30.9941L4.86367 28.8066C4.9082 28.7178 4.9543 28.752 4.93008 28.7314V15.3125H9.93017V28.4375Z" fill="#B4CD93"/>
</svg>
