<svg width="420" height="310" viewBox="0 0 420 310" fill="none" xmlns="http://www.w3.org/2000/svg">
<g filter="url(#filter0_d_410_5230)">
<rect x="50" y="41" width="320" height="210" rx="40" fill="#B4CD93"/>
</g>
<path d="M165.518 202L161.396 189.4H164.42L168.002 200.56H166.49L170.234 189.4H172.934L176.534 200.56H175.076L178.748 189.4H181.538L177.416 202H174.284L171.098 192.208H171.926L168.65 202H165.518ZM183.126 202V192.316H185.934V202H183.126ZM184.53 190.966C184.014 190.966 183.594 190.816 183.27 190.516C182.946 190.216 182.784 189.844 182.784 189.4C182.784 188.956 182.946 188.584 183.27 188.284C183.594 187.984 184.014 187.834 184.53 187.834C185.046 187.834 185.466 187.978 185.79 188.266C186.114 188.542 186.276 188.902 186.276 189.346C186.276 189.814 186.114 190.204 185.79 190.516C185.478 190.816 185.058 190.966 184.53 190.966ZM192.5 202.144C191.36 202.144 190.472 201.856 189.836 201.28C189.2 200.692 188.882 199.822 188.882 198.67V190.174H191.69V198.634C191.69 199.042 191.798 199.36 192.014 199.588C192.23 199.804 192.524 199.912 192.896 199.912C193.34 199.912 193.718 199.792 194.03 199.552L194.786 201.532C194.498 201.736 194.15 201.892 193.742 202C193.346 202.096 192.932 202.144 192.5 202.144ZM187.388 194.692V192.532H194.102V194.692H187.388ZM202.248 192.172C203.016 192.172 203.7 192.328 204.3 192.64C204.912 192.94 205.392 193.408 205.74 194.044C206.088 194.668 206.262 195.472 206.262 196.456V202H203.454V196.888C203.454 196.108 203.28 195.532 202.932 195.16C202.596 194.788 202.116 194.602 201.492 194.602C201.048 194.602 200.646 194.698 200.286 194.89C199.938 195.07 199.662 195.352 199.458 195.736C199.266 196.12 199.17 196.612 199.17 197.212V202H196.362V188.644H199.17V194.998L198.54 194.188C198.888 193.54 199.386 193.042 200.034 192.694C200.682 192.346 201.42 192.172 202.248 192.172ZM213.036 202.144C212.124 202.144 211.302 201.94 210.57 201.532C209.838 201.112 209.256 200.53 208.824 199.786C208.404 199.042 208.194 198.166 208.194 197.158C208.194 196.138 208.404 195.256 208.824 194.512C209.256 193.768 209.838 193.192 210.57 192.784C211.302 192.376 212.124 192.172 213.036 192.172C213.852 192.172 214.566 192.352 215.178 192.712C215.79 193.072 216.264 193.618 216.6 194.35C216.936 195.082 217.104 196.018 217.104 197.158C217.104 198.286 216.942 199.222 216.618 199.966C216.294 200.698 215.826 201.244 215.214 201.604C214.614 201.964 213.888 202.144 213.036 202.144ZM213.522 199.84C213.978 199.84 214.392 199.732 214.764 199.516C215.136 199.3 215.43 198.994 215.646 198.598C215.874 198.19 215.988 197.71 215.988 197.158C215.988 196.594 215.874 196.114 215.646 195.718C215.43 195.322 215.136 195.016 214.764 194.8C214.392 194.584 213.978 194.476 213.522 194.476C213.054 194.476 212.634 194.584 212.262 194.8C211.89 195.016 211.59 195.322 211.362 195.718C211.146 196.114 211.038 196.594 211.038 197.158C211.038 197.71 211.146 198.19 211.362 198.598C211.59 198.994 211.89 199.3 212.262 199.516C212.634 199.732 213.054 199.84 213.522 199.84ZM216.06 202V200.02L216.114 197.14L215.934 194.278V188.644H218.742V202H216.06ZM221.341 202V192.316H224.023V195.052L223.645 194.26C223.933 193.576 224.395 193.06 225.031 192.712C225.667 192.352 226.441 192.172 227.353 192.172V194.764C227.233 194.752 227.125 194.746 227.029 194.746C226.933 194.734 226.831 194.728 226.723 194.728C225.955 194.728 225.331 194.95 224.851 195.394C224.383 195.826 224.149 196.504 224.149 197.428V202H221.341ZM234.33 202V200.11L234.15 199.696V196.312C234.15 195.712 233.964 195.244 233.592 194.908C233.232 194.572 232.674 194.404 231.918 194.404C231.402 194.404 230.892 194.488 230.388 194.656C229.896 194.812 229.476 195.028 229.128 195.304L228.12 193.342C228.648 192.97 229.284 192.682 230.028 192.478C230.772 192.274 231.528 192.172 232.296 192.172C233.772 192.172 234.918 192.52 235.734 193.216C236.55 193.912 236.958 194.998 236.958 196.474V202H234.33ZM231.378 202.144C230.622 202.144 229.974 202.018 229.434 201.766C228.894 201.502 228.48 201.148 228.192 200.704C227.904 200.26 227.76 199.762 227.76 199.21C227.76 198.634 227.898 198.13 228.174 197.698C228.462 197.266 228.912 196.93 229.524 196.69C230.136 196.438 230.934 196.312 231.918 196.312H234.492V197.95H232.224C231.564 197.95 231.108 198.058 230.856 198.274C230.616 198.49 230.496 198.76 230.496 199.084C230.496 199.444 230.634 199.732 230.91 199.948C231.198 200.152 231.588 200.254 232.08 200.254C232.548 200.254 232.968 200.146 233.34 199.93C233.712 199.702 233.982 199.372 234.15 198.94L234.582 200.236C234.378 200.86 234.006 201.334 233.466 201.658C232.926 201.982 232.23 202.144 231.378 202.144ZM241.537 202L238.045 192.316H240.691L243.589 200.65H242.329L245.353 192.316H247.729L250.663 200.65H249.403L252.391 192.316H254.875L251.365 202H248.647L246.073 194.854H246.901L244.237 202H241.537Z" fill="white"/>
<g clip-path="url(#clip0_410_5230)">
<path d="M195.765 133.83C213.831 133.83 228.477 123.065 228.477 109.785C228.477 96.5055 213.831 85.7402 195.765 85.7402C177.698 85.7402 163.053 96.5055 163.053 109.785C163.053 123.065 177.698 133.83 195.765 133.83Z" fill="#3C92CA"/>
<path d="M273 147.229C273 147.177 273 147.124 272.976 147.071C272.976 147.019 272.952 146.966 272.929 146.913C272.905 146.861 272.905 146.808 272.881 146.773C272.857 146.721 272.833 146.685 272.785 146.633C272.762 146.58 272.738 146.545 272.69 146.493C272.666 146.44 272.618 146.405 272.571 146.37C272.523 146.335 272.499 146.282 272.451 146.247C272.404 146.212 272.356 146.177 272.284 146.142C272.237 146.107 272.189 146.072 272.141 146.037C272.093 146.002 272.022 145.984 271.95 145.949C271.903 145.931 271.855 145.896 271.783 145.879L245.466 136.338C245.394 136.303 245.322 136.285 245.227 136.268C244.774 136.145 233.917 133.356 225.041 136.285L205.452 141.494C205.404 141.512 205.333 141.529 205.285 141.547C202.47 142.494 200.99 144.616 201.587 146.843C202.183 149.053 204.617 150.614 207.671 150.719C207.695 150.719 207.695 150.719 207.719 150.719C207.91 150.719 208.769 150.684 217.692 150.263C221.582 150.088 225.59 149.895 225.948 149.877C227.069 149.842 228 149.176 228.024 148.334C228.048 147.457 227.117 146.721 225.9 146.703C225.781 146.703 225.781 146.703 217.43 147.089C213.254 147.282 208.578 147.51 207.79 147.545C206.287 147.457 205.929 146.528 205.834 146.247C205.667 145.651 205.905 144.862 207.027 144.458L226.592 139.249C226.64 139.232 226.688 139.214 226.759 139.197C233.631 136.899 242.602 138.969 243.676 139.214L255.391 143.458L248.949 154.63C245.776 153.192 241.91 152.806 238.331 153.596L212.038 159.401C208.912 160.102 205.452 159.839 202.565 158.682L161.382 142.283C159.903 141.687 160.38 140.652 160.5 140.442C160.643 140.161 161.263 139.284 162.766 139.583L194.763 147.422C195.884 147.703 197.125 147.247 197.507 146.422C197.888 145.581 197.268 144.686 196.147 144.406L164.079 136.531C164.031 136.513 164.007 136.513 163.959 136.513C160.786 135.882 157.708 137.004 156.491 139.249C155.25 141.512 156.42 143.897 159.331 145.072L200.537 161.523C204.426 163.084 209.079 163.434 213.302 162.487L239.596 156.682C242.006 156.156 244.607 156.402 246.73 157.401L260.14 163.61C260.211 163.645 260.259 163.662 260.33 163.68C260.354 163.68 260.354 163.698 260.378 163.698H260.402C260.426 163.715 260.45 163.715 260.497 163.715C260.545 163.733 260.617 163.75 260.664 163.768C260.688 163.768 260.736 163.785 260.76 163.785C260.808 163.803 260.879 163.803 260.927 163.82C260.951 163.82 260.998 163.82 261.022 163.838C261.118 163.838 261.189 163.855 261.285 163.855C261.38 163.855 261.476 163.855 261.571 163.838C261.595 163.838 261.643 163.838 261.667 163.82C261.738 163.82 261.786 163.803 261.857 163.785C261.881 163.785 261.929 163.768 261.953 163.768C262.001 163.75 262.072 163.733 262.12 163.715C262.144 163.698 262.191 163.698 262.215 163.68C262.263 163.662 262.311 163.645 262.382 163.61C262.406 163.592 262.454 163.575 262.478 163.575C262.526 163.557 262.573 163.522 262.621 163.505C262.645 163.487 262.693 163.47 262.716 163.452C262.764 163.417 262.788 163.399 262.836 163.364C262.86 163.347 262.883 163.329 262.931 163.294C262.979 163.259 263.003 163.224 263.027 163.189C263.05 163.171 263.074 163.136 263.098 163.119C263.098 163.119 263.098 163.101 263.122 163.101C263.122 163.084 263.146 163.066 263.146 163.066C263.17 163.031 263.217 162.978 263.241 162.926L272.785 147.983C272.809 147.931 272.833 147.896 272.857 147.843C272.881 147.79 272.905 147.738 272.929 147.703C272.952 147.65 272.952 147.597 272.952 147.545C272.952 147.492 272.976 147.44 272.976 147.387C273 147.334 273 147.282 273 147.229ZM267.989 148.036L260.378 159.944L252.671 156.367L259.281 144.897L267.989 148.036Z" fill="black"/>
<path d="M192.711 111.382H198.771C201.253 111.382 203.257 112.855 203.257 114.679C203.257 116.503 201.253 117.976 198.771 117.976H187.867C186.674 117.976 185.696 118.695 185.696 119.572C185.696 120.449 186.674 121.168 187.867 121.168H193.57V124.307C193.57 125.184 194.548 125.903 195.741 125.903C196.934 125.903 197.912 125.184 197.912 124.307V121.168H198.795C203.663 121.168 207.623 118.257 207.623 114.679C207.623 111.101 203.663 108.19 198.795 108.19H192.735C190.253 108.19 188.249 106.717 188.249 104.893C188.249 103.069 190.253 101.595 192.735 101.595H203.448C204.641 101.595 205.619 100.876 205.619 99.9994C205.619 99.1225 204.641 98.4034 203.448 98.4034H197.936V95.3343C197.936 94.4573 196.958 93.7383 195.765 93.7383C194.572 93.7383 193.594 94.4573 193.594 95.3343V98.421H192.711C187.843 98.421 183.883 101.332 183.883 104.91C183.906 108.47 187.867 111.382 192.711 111.382Z" fill="black"/>
<path d="M195.765 135.409C214.996 135.409 230.624 123.904 230.624 109.785C230.624 95.6671 214.972 84.1445 195.765 84.1445C176.557 84.1445 160.881 95.6496 160.881 109.785C160.881 123.921 176.534 135.409 195.765 135.409ZM195.765 87.3365C212.61 87.3365 226.306 97.4034 226.306 109.785C226.306 122.167 212.61 132.234 195.765 132.234C178.92 132.234 165.224 122.167 165.224 109.785C165.224 97.4034 178.92 87.3365 195.765 87.3365Z" fill="black"/>
</g>
<defs>
<filter id="filter0_d_410_5230" x="0" y="0" width="420" height="310" filterUnits="userSpaceOnUse" color-interpolation-filters="sRGB">
<feFlood flood-opacity="0" result="BackgroundImageFix"/>
<feColorMatrix in="SourceAlpha" type="matrix" values="0 0 0 0 0 0 0 0 0 0 0 0 0 0 0 0 0 0 127 0" result="hardAlpha"/>
<feOffset dy="9"/>
<feGaussianBlur stdDeviation="25"/>
<feComposite in2="hardAlpha" operator="out"/>
<feColorMatrix type="matrix" values="0 0 0 0 0 0 0 0 0 0 0 0 0 0 0 0 0 0 0.1 0"/>
<feBlend mode="normal" in2="BackgroundImageFix" result="effect1_dropShadow_410_5230"/>
<feBlend mode="normal" in="SourceGraphic" in2="effect1_dropShadow_410_5230" result="shape"/>
</filter>
<clipPath id="clip0_410_5230">
<rect width="117" height="86" fill="white" transform="translate(156 81)"/>
</clipPath>
</defs>
</svg>
