<svg width="420" height="310" viewBox="0 0 420 310" fill="none" xmlns="http://www.w3.org/2000/svg">
<g filter="url(#filter0_d_410_5230)">
<rect x="50" y="41" width="320" height="210" rx="40" fill="#B4CD93"/>
</g>
<path d="M168.518 207L164.396 194.4H167.42L171.002 205.56H169.49L173.234 194.4H175.934L179.534 205.56H178.076L181.748 194.4H184.538L180.416 207H177.284L174.098 197.208H174.926L171.65 207H168.518ZM186.126 207V197.316H188.934V207H186.126ZM187.53 195.966C187.014 195.966 186.594 195.816 186.27 195.516C185.946 195.216 185.784 194.844 185.784 194.4C185.784 193.956 185.946 193.584 186.27 193.284C186.594 192.984 187.014 192.834 187.53 192.834C188.046 192.834 188.466 192.978 188.79 193.266C189.114 193.542 189.276 193.902 189.276 194.346C189.276 194.814 189.114 195.204 188.79 195.516C188.478 195.816 188.058 195.966 187.53 195.966ZM195.5 207.144C194.36 207.144 193.472 206.856 192.836 206.28C192.2 205.692 191.882 204.822 191.882 203.67V195.174H194.69V203.634C194.69 204.042 194.798 204.36 195.014 204.588C195.23 204.804 195.524 204.912 195.896 204.912C196.34 204.912 196.718 204.792 197.03 204.552L197.786 206.532C197.498 206.736 197.15 206.892 196.742 207C196.346 207.096 195.932 207.144 195.5 207.144ZM190.388 199.692V197.532H197.102V199.692H190.388ZM205.248 197.172C206.016 197.172 206.7 197.328 207.3 197.64C207.912 197.94 208.392 198.408 208.74 199.044C209.088 199.668 209.262 200.472 209.262 201.456V207H206.454V201.888C206.454 201.108 206.28 200.532 205.932 200.16C205.596 199.788 205.116 199.602 204.492 199.602C204.048 199.602 203.646 199.698 203.286 199.89C202.938 200.07 202.662 200.352 202.458 200.736C202.266 201.12 202.17 201.612 202.17 202.212V207H199.362V193.644H202.17V199.998L201.54 199.188C201.888 198.54 202.386 198.042 203.034 197.694C203.682 197.346 204.42 197.172 205.248 197.172ZM216.036 207.144C215.124 207.144 214.302 206.94 213.57 206.532C212.838 206.112 212.256 205.53 211.824 204.786C211.404 204.042 211.194 203.166 211.194 202.158C211.194 201.138 211.404 200.256 211.824 199.512C212.256 198.768 212.838 198.192 213.57 197.784C214.302 197.376 215.124 197.172 216.036 197.172C216.852 197.172 217.566 197.352 218.178 197.712C218.79 198.072 219.264 198.618 219.6 199.35C219.936 200.082 220.104 201.018 220.104 202.158C220.104 203.286 219.942 204.222 219.618 204.966C219.294 205.698 218.826 206.244 218.214 206.604C217.614 206.964 216.888 207.144 216.036 207.144ZM216.522 204.84C216.978 204.84 217.392 204.732 217.764 204.516C218.136 204.3 218.43 203.994 218.646 203.598C218.874 203.19 218.988 202.71 218.988 202.158C218.988 201.594 218.874 201.114 218.646 200.718C218.43 200.322 218.136 200.016 217.764 199.8C217.392 199.584 216.978 199.476 216.522 199.476C216.054 199.476 215.634 199.584 215.262 199.8C214.89 200.016 214.59 200.322 214.362 200.718C214.146 201.114 214.038 201.594 214.038 202.158C214.038 202.71 214.146 203.19 214.362 203.598C214.59 203.994 214.89 204.3 215.262 204.516C215.634 204.732 216.054 204.84 216.522 204.84ZM219.06 207V205.02L219.114 202.14L218.934 199.278V193.644H221.742V207H219.06ZM224.341 207V197.316H227.023V200.052L226.645 199.26C226.933 198.576 227.395 198.06 228.031 197.712C228.667 197.352 229.441 197.172 230.353 197.172V199.764C230.233 199.752 230.125 199.746 230.029 199.746C229.933 199.734 229.831 199.728 229.723 199.728C228.955 199.728 228.331 199.95 227.851 200.394C227.383 200.826 227.149 201.504 227.149 202.428V207H224.341ZM237.33 207V205.11L237.15 204.696V201.312C237.15 200.712 236.964 200.244 236.592 199.908C236.232 199.572 235.674 199.404 234.918 199.404C234.402 199.404 233.892 199.488 233.388 199.656C232.896 199.812 232.476 200.028 232.128 200.304L231.12 198.342C231.648 197.97 232.284 197.682 233.028 197.478C233.772 197.274 234.528 197.172 235.296 197.172C236.772 197.172 237.918 197.52 238.734 198.216C239.55 198.912 239.958 199.998 239.958 201.474V207H237.33ZM234.378 207.144C233.622 207.144 232.974 207.018 232.434 206.766C231.894 206.502 231.48 206.148 231.192 205.704C230.904 205.26 230.76 204.762 230.76 204.21C230.76 203.634 230.898 203.13 231.174 202.698C231.462 202.266 231.912 201.93 232.524 201.69C233.136 201.438 233.934 201.312 234.918 201.312H237.492V202.95H235.224C234.564 202.95 234.108 203.058 233.856 203.274C233.616 203.49 233.496 203.76 233.496 204.084C233.496 204.444 233.634 204.732 233.91 204.948C234.198 205.152 234.588 205.254 235.08 205.254C235.548 205.254 235.968 205.146 236.34 204.93C236.712 204.702 236.982 204.372 237.15 203.94L237.582 205.236C237.378 205.86 237.006 206.334 236.466 206.658C235.926 206.982 235.23 207.144 234.378 207.144ZM244.537 207L241.045 197.316H243.691L246.589 205.65H245.329L248.353 197.316H250.729L253.663 205.65H252.403L255.391 197.316H257.875L254.365 207H251.647L249.073 199.854H249.901L247.237 207H244.537Z" fill="white"/>
<g clip-path="url(#clip0_410_5230)">
<path d="M191.562 119.5H217.179L217.186 125.125C217.186 125.871 217.638 126.546 218.34 126.844C219.041 127.142 219.856 127.006 220.416 126.5L229.385 118.375C230.205 117.632 230.205 116.368 229.385 115.625L220.416 107.5C219.856 106.994 219.041 106.858 218.34 107.156C217.638 107.454 217.186 108.129 217.186 108.875L217.179 114.5H191.562C190.146 114.5 189 115.617 189 116.93C189 118.242 190.146 119.5 191.562 119.5ZM227.438 134.5H201.821L201.812 128.805C201.812 128.059 201.36 127.384 200.659 127.086C199.963 126.859 199.146 126.992 198.585 127.5L189.617 135.625C188.797 136.367 188.797 137.632 189.617 138.374L198.585 146.499C199.145 147.006 199.96 147.141 200.662 146.844C201.364 146.547 201.812 145.867 201.812 145.125L201.821 139.5H227.438C228.854 139.5 230 138.382 230 137C230 135.618 228.855 134.5 227.438 134.5Z" fill="white"/>
</g>
<circle cx="210" cy="127" r="40.5" stroke="white" stroke-dasharray="2 2"/>
<defs>
<filter id="filter0_d_410_5230" x="0" y="0" width="420" height="310" filterUnits="userSpaceOnUse" color-interpolation-filters="sRGB">
<feFlood flood-opacity="0" result="BackgroundImageFix"/>
<feColorMatrix in="SourceAlpha" type="matrix" values="0 0 0 0 0 0 0 0 0 0 0 0 0 0 0 0 0 0 127 0" result="hardAlpha"/>
<feOffset dy="9"/>
<feGaussianBlur stdDeviation="25"/>
<feComposite in2="hardAlpha" operator="out"/>
<feColorMatrix type="matrix" values="0 0 0 0 0 0 0 0 0 0 0 0 0 0 0 0 0 0 0.1 0"/>
<feBlend mode="normal" in2="BackgroundImageFix" result="effect1_dropShadow_410_5230"/>
<feBlend mode="normal" in="SourceGraphic" in2="effect1_dropShadow_410_5230" result="shape"/>
</filter>
<clipPath id="clip0_410_5230">
<rect width="41" height="40" fill="white" transform="translate(189 107)"/>
</clipPath>
</defs>
</svg>
