<svg width="412" height="252" viewBox="0 0 412 252" fill="none" xmlns="http://www.w3.org/2000/svg">
<g clip-path="url(#clip0_6_486)">
<path d="M384.701 227.56C382.745 228.248 380.645 228.42 378.604 228.061C376.562 227.701 374.647 226.821 373.044 225.505C368.961 222.076 367.68 216.428 366.639 211.196L363.558 195.723L370.008 200.167C374.647 203.363 379.39 206.662 382.602 211.291C385.813 215.92 387.215 222.24 384.635 227.249" fill="#E6E6E6"/>
<path d="M383.706 247.371C384.517 241.452 385.353 235.457 384.782 229.475C384.276 224.162 382.656 218.974 379.358 214.719C377.608 212.464 375.478 210.533 373.064 209.011C372.435 208.614 371.856 209.612 372.482 210.007C376.659 212.649 379.889 216.549 381.708 221.145C383.716 226.257 384.039 231.829 383.693 237.259C383.484 240.543 383.039 243.805 382.593 247.064C382.558 247.211 382.58 247.366 382.655 247.498C382.729 247.63 382.851 247.728 382.996 247.773C383.143 247.813 383.301 247.793 383.433 247.718C383.566 247.642 383.664 247.517 383.705 247.37L383.706 247.371Z" fill="#F2F2F2"/>
<path d="M377.862 237.874C377.023 239.15 375.87 240.188 374.514 240.889C373.158 241.59 371.644 241.929 370.118 241.874C366.198 241.688 362.93 238.951 359.989 236.352L351.288 228.664L357.047 228.389C361.188 228.19 365.436 228.004 369.38 229.283C373.324 230.563 376.962 233.637 377.683 237.722" fill="#E6E6E6"/>
<path d="M386 250.773C382.092 243.853 377.558 236.162 369.458 233.703C367.205 233.022 364.844 232.778 362.5 232.985C361.761 233.048 361.946 234.188 362.683 234.124C366.612 233.798 370.533 234.836 373.787 237.064C376.918 239.196 379.356 242.161 381.419 245.305C382.682 247.231 383.815 249.238 384.947 251.243C385.308 251.884 386.366 251.421 386 250.773Z" fill="#F2F2F2"/>
<path d="M246.398 75.0815V140.974H94.3074V175.96H54.0986V75.0815H246.398Z" fill="white"/>
<path d="M52.3486 73.3357V177.712H94.3074V174.215H55.8435V76.8329H244.653V140.974H248.148V73.3357H52.3486Z" fill="#E5E5E5"/>
<path d="M216.3 112.422H94.4043V116.728H216.3V112.422Z" fill="#E5E5E5"/>
<path d="M216.3 123.617H94.4043V127.922H216.3V123.617Z" fill="#E5E5E5"/>
<path d="M216.3 134.812H94.4043V139.118H216.3V134.812Z" fill="#E5E5E5"/>
<path d="M87.0052 117.547C88.5562 117.547 89.8134 116.289 89.8134 114.737C89.8134 113.185 88.5562 111.927 87.0052 111.927C85.4543 111.927 84.197 113.185 84.197 114.737C84.197 116.289 85.4543 117.547 87.0052 117.547Z" fill="#E5E5E5"/>
<path d="M194.049 1.74609V67.6384H41.9588V102.625H1.75V1.74609H194.049Z" fill="white"/>
<path d="M0 0V104.376H41.9588V100.879H3.49489V3.49716H192.304V67.6384H195.799V0H0Z" fill="#F1F1F1"/>
<path d="M163.951 39.0862H42.0554V43.3919H163.951V39.0862Z" fill="#F1F1F1"/>
<path d="M163.951 50.2812H42.0554V54.587H163.951V50.2812Z" fill="#F1F1F1"/>
<path d="M163.951 61.4761H42.0554V65.7818H163.951V61.4761Z" fill="#F1F1F1"/>
<path d="M34.6566 44.2116C36.2075 44.2116 37.4648 42.9535 37.4648 41.4016C37.4648 39.8496 36.2075 38.5916 34.6566 38.5916C33.1057 38.5916 31.8484 39.8496 31.8484 41.4016C31.8484 42.9535 33.1057 44.2116 34.6566 44.2116Z" fill="#F1F1F1"/>
<path d="M296.888 149.372H104.586V250.251H296.888V149.372Z" fill="white"/>
<path d="M298.637 252H102.838V147.623H298.637V252ZM106.334 248.501H295.14V151.121H106.334V248.501Z" fill="#CBCBCB"/>
<path d="M266.577 186.869H144.682V191.175H266.577V186.869Z" fill="#4CAF50"/>
<path d="M266.577 198.064H144.682V202.37H266.577V198.064Z" fill="#4CAF50"/>
<path d="M266.577 209.259H144.682V213.565H266.577V209.259Z" fill="#4CAF50"/>
<path d="M137.283 191.995C138.834 191.995 140.091 190.737 140.091 189.185C140.091 187.633 138.834 186.375 137.283 186.375C135.732 186.375 134.475 187.633 134.475 189.185C134.475 190.737 135.732 191.995 137.283 191.995Z" fill="#4CAF50"/>
<path d="M268.542 147.627C268.118 147.028 267.83 146.343 267.699 145.62C267.567 144.898 267.596 144.156 267.782 143.446C267.969 142.735 268.309 142.075 268.778 141.51C269.247 140.946 269.834 140.491 270.498 140.178L284.406 96.6023L294.092 101.637L277.375 142.888C277.827 144.038 277.841 145.315 277.414 146.475C276.988 147.635 276.151 148.599 275.062 149.183C273.974 149.767 272.709 149.931 271.507 149.644C270.305 149.358 269.25 148.64 268.542 147.627V147.627Z" fill="#9F616A"/>
<path d="M279.905 102.628C279.772 102.333 279.704 102.013 279.706 101.689C279.707 101.366 279.779 101.046 279.915 100.753L284.679 90.5048C285.149 88.9171 286.228 87.5806 287.681 86.7883C289.134 85.996 290.842 85.8127 292.43 86.2784C294.018 86.7441 295.357 87.8209 296.152 89.2727C296.948 90.7245 297.136 92.4327 296.675 94.0229L295.082 105.25C295.037 105.57 294.923 105.877 294.748 106.149C294.574 106.422 294.343 106.653 294.07 106.828C293.798 107.003 293.492 107.117 293.172 107.163C292.851 107.208 292.525 107.184 292.215 107.092L281.317 103.861C281.007 103.77 280.72 103.612 280.476 103.399C280.233 103.186 280.038 102.923 279.905 102.628Z" fill="#4CAF50"/>
<path d="M320.084 104.357L319.307 115.242L292.891 124.572L292.502 114.076L320.084 104.357Z" fill="#9F616A"/>
<path d="M286.287 88.4197L294.833 82.2L308.819 78.3127L320.473 80.6451L322.415 98.9153L320.084 110.577L289.783 117.574L286.675 112.132C286.675 112.132 279.683 105.135 285.122 97.3604L286.287 88.4197Z" fill="#4CAF50"/>
<path d="M283.179 72.4558V62.2472C283.179 57.928 284.894 53.7858 287.946 50.7318C290.998 47.6777 295.138 45.9619 299.454 45.9619C303.77 45.9619 307.91 47.6777 310.962 50.7318C314.014 53.7858 315.729 57.928 315.729 62.2472V72.4558C315.728 73.0358 315.497 73.5919 315.088 74.002C314.678 74.4121 314.122 74.6428 313.542 74.6434H285.365C284.786 74.6428 284.23 74.4121 283.82 74.002C283.41 73.5919 283.18 73.0358 283.179 72.4558Z" fill="#2F2E41"/>
<path d="M298.8 74.5429C305.39 74.5429 310.732 69.1973 310.732 62.6031C310.732 56.0089 305.39 50.6633 298.8 50.6633C292.21 50.6633 286.868 56.0089 286.868 62.6031C286.868 69.1973 292.21 74.5429 298.8 74.5429Z" fill="#9F616A"/>
<path d="M286.54 62.5571C286.426 62.4254 286.342 62.2708 286.293 62.1036C286.244 61.9364 286.231 61.7606 286.256 61.5882L287.669 51.7394C287.697 51.539 287.775 51.3487 287.895 51.1858C288.015 51.0229 288.173 50.8926 288.356 50.8065C295.571 47.4278 302.887 47.4236 310.101 50.7937C310.293 50.8845 310.457 51.0234 310.579 51.1969C310.701 51.3704 310.775 51.5725 310.795 51.7835L311.739 61.6451C311.755 61.8138 311.736 61.9839 311.682 62.1446C311.629 62.3053 311.543 62.4531 311.429 62.5785C311.315 62.7038 311.176 62.8039 311.021 62.8725C310.867 62.941 310.699 62.9763 310.53 62.9763H308.137C307.906 62.9757 307.68 62.9095 307.485 62.7854C307.29 62.6613 307.135 62.4843 307.036 62.2751L306.004 60.0609C305.937 59.9176 305.825 59.7998 305.686 59.7255C305.546 59.6512 305.386 59.6243 305.23 59.6489C305.074 59.6735 304.93 59.7482 304.82 59.8619C304.71 59.9755 304.64 60.1219 304.62 60.2789L304.416 61.9115C304.379 62.2053 304.236 62.4755 304.015 62.6715C303.793 62.8676 303.507 62.9759 303.211 62.9763H287.458C287.284 62.9763 287.112 62.9389 286.953 62.8666C286.795 62.7943 286.654 62.6887 286.54 62.5571Z" fill="#2F2E41"/>
<path d="M338.337 142.542C337.622 142.376 336.953 142.055 336.375 141.602C335.798 141.149 335.327 140.575 334.995 139.92C334.663 139.265 334.479 138.545 334.456 137.811C334.432 137.078 334.57 136.347 334.859 135.673L316.356 93.8427L326.941 91.175L341.8 133.131C342.901 133.692 343.758 134.638 344.209 135.789C344.66 136.939 344.673 138.216 344.246 139.376C343.819 140.536 342.982 141.499 341.893 142.083C340.804 142.666 339.539 142.83 338.337 142.542Z" fill="#9F616A"/>
<path d="M316.987 101.339C316.691 101.207 316.428 101.013 316.215 100.769C316.002 100.526 315.843 100.24 315.751 99.9297L312.516 89.1006C311.814 87.6012 311.735 85.8844 312.296 84.3267C312.857 82.769 314.013 81.4976 315.509 80.7912C317.006 80.0849 318.722 80.0012 320.28 80.5586C321.838 81.116 323.111 82.269 323.821 83.7647L330.078 93.2191C330.256 93.489 330.374 93.7941 330.425 94.1139C330.475 94.4336 330.455 94.7603 330.368 95.0719C330.28 95.3834 330.126 95.6724 329.917 95.9192C329.708 96.1659 329.448 96.3647 329.155 96.5019L318.861 101.324C318.568 101.461 318.249 101.534 317.925 101.536C317.602 101.539 317.282 101.472 316.987 101.339Z" fill="#4CAF50"/>
<path d="M318.755 244.629L312.021 244.629L308.817 218.636L318.756 218.637L318.755 244.629Z" fill="#9F616A"/>
<path d="M320.472 251.162L298.757 251.161V250.886C298.757 248.643 299.648 246.492 301.233 244.906C302.818 243.32 304.968 242.429 307.209 242.429H307.21L320.473 242.429L320.472 251.162Z" fill="#2F2E41"/>
<path d="M313.637 189.749L309.046 194.679L287.857 179.305L294.633 172.028L313.637 189.749Z" fill="#9F616A"/>
<path d="M319.584 192.945L304.78 208.841L304.579 208.654C302.939 207.125 301.973 205.006 301.894 202.765C301.815 200.523 302.629 198.342 304.157 196.701L304.157 196.7L313.199 186.991L319.584 192.945Z" fill="#2F2E41"/>
<path d="M320.861 115.242L323.015 117.397C333.789 128.178 336.441 143.126 335.147 158.317C334.966 160.57 334.606 162.804 334.07 164.999C330.185 180.548 332.516 230.305 324.746 233.415L323.192 238.857L308.042 238.297L308.43 233.415C308.43 233.415 304.934 226.029 307.265 221.365C309.596 216.7 314.646 182.103 314.646 182.103L311.926 153.726L291.726 163.833C291.726 163.833 302.214 169.664 301.438 173.551C301.438 173.551 307.653 175.106 306.099 178.993L308.43 183.658L302.991 192.21C302.991 192.21 266.475 170.441 269.582 159.557C272.69 148.673 292.114 140.898 292.114 140.898L293.668 129.236L292.328 122.882L319.508 112.427L320.861 115.242Z" fill="#2F2E41"/>
<path d="M411.501 252H190.141C190.009 252 189.882 251.947 189.789 251.854C189.695 251.76 189.643 251.633 189.643 251.501C189.643 251.369 189.695 251.242 189.789 251.148C189.882 251.055 190.009 251.002 190.141 251.002H411.501C411.634 251.002 411.761 251.055 411.854 251.148C411.948 251.242 412 251.369 412 251.501C412 251.633 411.948 251.76 411.854 251.854C411.761 251.947 411.634 252 411.501 252Z" fill="#CBCBCB"/>
</g>
<defs>
<clipPath id="clip0_6_486">
<rect width="412" height="252" fill="white"/>
</clipPath>
</defs>
</svg>
