<svg width="420" height="310" viewBox="0 0 420 310" fill="none" xmlns="http://www.w3.org/2000/svg">
<g filter="url(#filter0_d_410_5240)">
<rect x="50" y="41" width="320" height="210" rx="40" fill="#2196F3"/>
</g>
<path d="M84.104 202V191.776H80.072V189.4H91.052V191.776H87.02V202H84.104ZM92.212 202V192.316H94.894V195.052L94.516 194.26C94.804 193.576 95.266 193.06 95.902 192.712C96.538 192.352 97.312 192.172 98.224 192.172V194.764C98.104 194.752 97.996 194.746 97.9 194.746C97.804 194.734 97.702 194.728 97.594 194.728C96.826 194.728 96.202 194.95 95.722 195.394C95.254 195.826 95.02 196.504 95.02 197.428V202H92.212ZM105.201 202V200.11L105.021 199.696V196.312C105.021 195.712 104.835 195.244 104.463 194.908C104.103 194.572 103.545 194.404 102.789 194.404C102.273 194.404 101.763 194.488 101.259 194.656C100.767 194.812 100.347 195.028 99.9988 195.304L98.9908 193.342C99.5188 192.97 100.155 192.682 100.899 192.478C101.643 192.274 102.399 192.172 103.167 192.172C104.643 192.172 105.789 192.52 106.605 193.216C107.421 193.912 107.829 194.998 107.829 196.474V202H105.201ZM102.249 202.144C101.493 202.144 100.845 202.018 100.305 201.766C99.7648 201.502 99.3508 201.148 99.0628 200.704C98.7748 200.26 98.6308 199.762 98.6308 199.21C98.6308 198.634 98.7688 198.13 99.0448 197.698C99.3328 197.266 99.7828 196.93 100.395 196.69C101.007 196.438 101.805 196.312 102.789 196.312H105.363V197.95H103.095C102.435 197.95 101.979 198.058 101.727 198.274C101.487 198.49 101.367 198.76 101.367 199.084C101.367 199.444 101.505 199.732 101.781 199.948C102.069 200.152 102.459 200.254 102.951 200.254C103.419 200.254 103.839 200.146 104.211 199.93C104.583 199.702 104.853 199.372 105.021 198.94L105.453 200.236C105.249 200.86 104.877 201.334 104.337 201.658C103.797 201.982 103.101 202.144 102.249 202.144ZM116.256 192.172C117.024 192.172 117.708 192.328 118.308 192.64C118.92 192.94 119.4 193.408 119.748 194.044C120.096 194.668 120.27 195.472 120.27 196.456V202H117.462V196.888C117.462 196.108 117.288 195.532 116.94 195.16C116.604 194.788 116.124 194.602 115.5 194.602C115.056 194.602 114.654 194.698 114.294 194.89C113.946 195.07 113.67 195.352 113.466 195.736C113.274 196.12 113.178 196.612 113.178 197.212V202H110.37V192.316H113.052V194.998L112.548 194.188C112.896 193.54 113.394 193.042 114.042 192.694C114.69 192.346 115.428 192.172 116.256 192.172ZM126.074 202.144C125.246 202.144 124.448 202.048 123.68 201.856C122.924 201.652 122.324 201.4 121.88 201.1L122.816 199.084C123.26 199.36 123.782 199.588 124.382 199.768C124.994 199.936 125.594 200.02 126.182 200.02C126.83 200.02 127.286 199.942 127.55 199.786C127.826 199.63 127.964 199.414 127.964 199.138C127.964 198.91 127.856 198.742 127.64 198.634C127.436 198.514 127.16 198.424 126.812 198.364C126.464 198.304 126.08 198.244 125.66 198.184C125.252 198.124 124.838 198.046 124.418 197.95C123.998 197.842 123.614 197.686 123.266 197.482C122.918 197.278 122.636 197.002 122.42 196.654C122.216 196.306 122.114 195.856 122.114 195.304C122.114 194.692 122.288 194.152 122.636 193.684C122.996 193.216 123.512 192.85 124.184 192.586C124.856 192.31 125.66 192.172 126.596 192.172C127.256 192.172 127.928 192.244 128.612 192.388C129.296 192.532 129.866 192.742 130.322 193.018L129.386 195.016C128.918 194.74 128.444 194.554 127.964 194.458C127.496 194.35 127.04 194.296 126.596 194.296C125.972 194.296 125.516 194.38 125.228 194.548C124.94 194.716 124.796 194.932 124.796 195.196C124.796 195.436 124.898 195.616 125.102 195.736C125.318 195.856 125.6 195.952 125.948 196.024C126.296 196.096 126.674 196.162 127.082 196.222C127.502 196.27 127.922 196.348 128.342 196.456C128.762 196.564 129.14 196.72 129.476 196.924C129.824 197.116 130.106 197.386 130.322 197.734C130.538 198.07 130.646 198.514 130.646 199.066C130.646 199.666 130.466 200.2 130.106 200.668C129.746 201.124 129.224 201.484 128.54 201.748C127.868 202.012 127.046 202.144 126.074 202.144ZM132.72 202V192.1C132.72 191.008 133.044 190.138 133.692 189.49C134.34 188.83 135.264 188.5 136.464 188.5C136.872 188.5 137.262 188.542 137.634 188.626C138.018 188.71 138.342 188.842 138.606 189.022L137.868 191.056C137.712 190.948 137.538 190.864 137.346 190.804C137.154 190.744 136.95 190.714 136.734 190.714C136.326 190.714 136.008 190.834 135.78 191.074C135.564 191.302 135.456 191.65 135.456 192.118V193.018L135.528 194.224V202H132.72ZM131.226 194.692V192.532H137.94V194.692H131.226ZM144.022 202.144C142.918 202.144 141.946 201.928 141.106 201.496C140.278 201.064 139.636 200.476 139.18 199.732C138.724 198.976 138.496 198.118 138.496 197.158C138.496 196.186 138.718 195.328 139.162 194.584C139.618 193.828 140.236 193.24 141.016 192.82C141.796 192.388 142.678 192.172 143.662 192.172C144.61 192.172 145.462 192.376 146.218 192.784C146.986 193.18 147.592 193.756 148.036 194.512C148.48 195.256 148.702 196.15 148.702 197.194C148.702 197.302 148.696 197.428 148.684 197.572C148.672 197.704 148.66 197.83 148.648 197.95H140.782V196.312H147.172L146.092 196.798C146.092 196.294 145.99 195.856 145.786 195.484C145.582 195.112 145.3 194.824 144.94 194.62C144.58 194.404 144.16 194.296 143.68 194.296C143.2 194.296 142.774 194.404 142.402 194.62C142.042 194.824 141.76 195.118 141.556 195.502C141.352 195.874 141.25 196.318 141.25 196.834V197.266C141.25 197.794 141.364 198.262 141.592 198.67C141.832 199.066 142.162 199.372 142.582 199.588C143.014 199.792 143.518 199.894 144.094 199.894C144.61 199.894 145.06 199.816 145.444 199.66C145.84 199.504 146.2 199.27 146.524 198.958L148.018 200.578C147.574 201.082 147.016 201.472 146.344 201.748C145.672 202.012 144.898 202.144 144.022 202.144ZM150.571 202V192.316H153.253V195.052L152.875 194.26C153.163 193.576 153.625 193.06 154.261 192.712C154.897 192.352 155.671 192.172 156.583 192.172V194.764C156.463 194.752 156.355 194.746 156.259 194.746C156.163 194.734 156.061 194.728 155.953 194.728C155.185 194.728 154.561 194.95 154.081 195.394C153.613 195.826 153.379 196.504 153.379 197.428V202H150.571ZM167.381 202.144C166.241 202.144 165.353 201.856 164.717 201.28C164.081 200.692 163.763 199.822 163.763 198.67V190.174H166.571V198.634C166.571 199.042 166.679 199.36 166.895 199.588C167.111 199.804 167.405 199.912 167.777 199.912C168.221 199.912 168.599 199.792 168.911 199.552L169.667 201.532C169.379 201.736 169.031 201.892 168.623 202C168.227 202.096 167.813 202.144 167.381 202.144ZM162.269 194.692V192.532H168.983V194.692H162.269ZM175.552 202.144C174.52 202.144 173.602 201.928 172.798 201.496C172.006 201.064 171.376 200.476 170.908 199.732C170.452 198.976 170.224 198.118 170.224 197.158C170.224 196.186 170.452 195.328 170.908 194.584C171.376 193.828 172.006 193.24 172.798 192.82C173.602 192.388 174.52 192.172 175.552 192.172C176.572 192.172 177.484 192.388 178.288 192.82C179.092 193.24 179.722 193.822 180.178 194.566C180.634 195.31 180.862 196.174 180.862 197.158C180.862 198.118 180.634 198.976 180.178 199.732C179.722 200.476 179.092 201.064 178.288 201.496C177.484 201.928 176.572 202.144 175.552 202.144ZM175.552 199.84C176.02 199.84 176.44 199.732 176.812 199.516C177.184 199.3 177.478 198.994 177.694 198.598C177.91 198.19 178.018 197.71 178.018 197.158C178.018 196.594 177.91 196.114 177.694 195.718C177.478 195.322 177.184 195.016 176.812 194.8C176.44 194.584 176.02 194.476 175.552 194.476C175.084 194.476 174.664 194.584 174.292 194.8C173.92 195.016 173.62 195.322 173.392 195.718C173.176 196.114 173.068 196.594 173.068 197.158C173.068 197.71 173.176 198.19 173.392 198.598C173.62 198.994 173.92 199.3 174.292 199.516C174.664 199.732 175.084 199.84 175.552 199.84ZM193.777 202V200.11L193.597 199.696V196.312C193.597 195.712 193.411 195.244 193.039 194.908C192.679 194.572 192.121 194.404 191.365 194.404C190.849 194.404 190.339 194.488 189.835 194.656C189.343 194.812 188.923 195.028 188.575 195.304L187.567 193.342C188.095 192.97 188.731 192.682 189.475 192.478C190.219 192.274 190.975 192.172 191.743 192.172C193.219 192.172 194.365 192.52 195.181 193.216C195.997 193.912 196.405 194.998 196.405 196.474V202H193.777ZM190.825 202.144C190.069 202.144 189.421 202.018 188.881 201.766C188.341 201.502 187.927 201.148 187.639 200.704C187.351 200.26 187.207 199.762 187.207 199.21C187.207 198.634 187.345 198.13 187.621 197.698C187.909 197.266 188.359 196.93 188.971 196.69C189.583 196.438 190.381 196.312 191.365 196.312H193.939V197.95H191.671C191.011 197.95 190.555 198.058 190.303 198.274C190.063 198.49 189.943 198.76 189.943 199.084C189.943 199.444 190.081 199.732 190.357 199.948C190.645 200.152 191.035 200.254 191.527 200.254C191.995 200.254 192.415 200.146 192.787 199.93C193.159 199.702 193.429 199.372 193.597 198.94L194.029 200.236C193.825 200.86 193.453 201.334 192.913 201.658C192.373 201.982 191.677 202.144 190.825 202.144ZM204.242 202V189.4H210.398C211.982 189.4 213.17 189.7 213.962 190.3C214.766 190.9 215.168 191.692 215.168 192.676C215.168 193.336 215.006 193.912 214.682 194.404C214.358 194.884 213.914 195.256 213.35 195.52C212.786 195.784 212.138 195.916 211.406 195.916L211.748 195.178C212.54 195.178 213.242 195.31 213.854 195.574C214.466 195.826 214.94 196.204 215.276 196.708C215.624 197.212 215.798 197.83 215.798 198.562C215.798 199.642 215.372 200.488 214.52 201.1C213.668 201.7 212.414 202 210.758 202H204.242ZM207.14 199.804H210.542C211.298 199.804 211.868 199.684 212.252 199.444C212.648 199.192 212.846 198.796 212.846 198.256C212.846 197.728 212.648 197.338 212.252 197.086C211.868 196.822 211.298 196.69 210.542 196.69H206.924V194.566H210.038C210.746 194.566 211.286 194.446 211.658 194.206C212.042 193.954 212.234 193.576 212.234 193.072C212.234 192.58 212.042 192.214 211.658 191.974C211.286 191.722 210.746 191.596 210.038 191.596H207.14V199.804ZM223.748 202V200.11L223.568 199.696V196.312C223.568 195.712 223.382 195.244 223.01 194.908C222.65 194.572 222.092 194.404 221.336 194.404C220.82 194.404 220.31 194.488 219.806 194.656C219.314 194.812 218.894 195.028 218.546 195.304L217.538 193.342C218.066 192.97 218.702 192.682 219.446 192.478C220.19 192.274 220.946 192.172 221.714 192.172C223.19 192.172 224.336 192.52 225.152 193.216C225.968 193.912 226.376 194.998 226.376 196.474V202H223.748ZM220.796 202.144C220.04 202.144 219.392 202.018 218.852 201.766C218.312 201.502 217.898 201.148 217.61 200.704C217.322 200.26 217.178 199.762 217.178 199.21C217.178 198.634 217.316 198.13 217.592 197.698C217.88 197.266 218.33 196.93 218.942 196.69C219.554 196.438 220.352 196.312 221.336 196.312H223.91V197.95H221.642C220.982 197.95 220.526 198.058 220.274 198.274C220.034 198.49 219.914 198.76 219.914 199.084C219.914 199.444 220.052 199.732 220.328 199.948C220.616 200.152 221.006 200.254 221.498 200.254C221.966 200.254 222.386 200.146 222.758 199.93C223.13 199.702 223.4 199.372 223.568 198.94L224 200.236C223.796 200.86 223.424 201.334 222.884 201.658C222.344 201.982 221.648 202.144 220.796 202.144ZM234.803 192.172C235.571 192.172 236.255 192.328 236.855 192.64C237.467 192.94 237.947 193.408 238.295 194.044C238.643 194.668 238.817 195.472 238.817 196.456V202H236.009V196.888C236.009 196.108 235.835 195.532 235.487 195.16C235.151 194.788 234.671 194.602 234.047 194.602C233.603 194.602 233.201 194.698 232.841 194.89C232.493 195.07 232.217 195.352 232.013 195.736C231.821 196.12 231.725 196.612 231.725 197.212V202H228.917V192.316H231.599V194.998L231.095 194.188C231.443 193.54 231.941 193.042 232.589 192.694C233.237 192.346 233.975 192.172 234.803 192.172ZM243.684 200.02L243.756 196.6L248.274 192.316H251.622L247.284 196.726L245.826 197.914L243.684 200.02ZM241.362 202V188.644H244.17V202H241.362ZM248.58 202L245.304 197.932L247.068 195.754L251.982 202H248.58ZM256.885 202L262.501 189.4H265.381L271.015 202H267.955L263.347 190.876H264.499L259.873 202H256.885ZM259.693 199.3L260.467 197.086H266.947L267.739 199.3H259.693ZM276.716 202.144C275.672 202.144 274.742 201.934 273.926 201.514C273.11 201.082 272.468 200.488 272 199.732C271.544 198.976 271.316 198.118 271.316 197.158C271.316 196.186 271.544 195.328 272 194.584C272.468 193.828 273.11 193.24 273.926 192.82C274.742 192.388 275.672 192.172 276.716 192.172C277.736 192.172 278.624 192.388 279.38 192.82C280.136 193.24 280.694 193.846 281.054 194.638L278.876 195.808C278.624 195.352 278.306 195.016 277.922 194.8C277.55 194.584 277.142 194.476 276.698 194.476C276.218 194.476 275.786 194.584 275.402 194.8C275.018 195.016 274.712 195.322 274.484 195.718C274.268 196.114 274.16 196.594 274.16 197.158C274.16 197.722 274.268 198.202 274.484 198.598C274.712 198.994 275.018 199.3 275.402 199.516C275.786 199.732 276.218 199.84 276.698 199.84C277.142 199.84 277.55 199.738 277.922 199.534C278.306 199.318 278.624 198.976 278.876 198.508L281.054 199.696C280.694 200.476 280.136 201.082 279.38 201.514C278.624 201.934 277.736 202.144 276.716 202.144ZM287.228 202.144C286.184 202.144 285.254 201.934 284.438 201.514C283.622 201.082 282.98 200.488 282.512 199.732C282.056 198.976 281.828 198.118 281.828 197.158C281.828 196.186 282.056 195.328 282.512 194.584C282.98 193.828 283.622 193.24 284.438 192.82C285.254 192.388 286.184 192.172 287.228 192.172C288.248 192.172 289.136 192.388 289.892 192.82C290.648 193.24 291.206 193.846 291.566 194.638L289.388 195.808C289.136 195.352 288.818 195.016 288.434 194.8C288.062 194.584 287.654 194.476 287.21 194.476C286.73 194.476 286.298 194.584 285.914 194.8C285.53 195.016 285.224 195.322 284.996 195.718C284.78 196.114 284.672 196.594 284.672 197.158C284.672 197.722 284.78 198.202 284.996 198.598C285.224 198.994 285.53 199.3 285.914 199.516C286.298 199.732 286.73 199.84 287.21 199.84C287.654 199.84 288.062 199.738 288.434 199.534C288.818 199.318 289.136 198.976 289.388 198.508L291.566 199.696C291.206 200.476 290.648 201.082 289.892 201.514C289.136 201.934 288.248 202.144 287.228 202.144ZM297.668 202.144C296.636 202.144 295.718 201.928 294.914 201.496C294.122 201.064 293.492 200.476 293.024 199.732C292.568 198.976 292.34 198.118 292.34 197.158C292.34 196.186 292.568 195.328 293.024 194.584C293.492 193.828 294.122 193.24 294.914 192.82C295.718 192.388 296.636 192.172 297.668 192.172C298.688 192.172 299.6 192.388 300.404 192.82C301.208 193.24 301.838 193.822 302.294 194.566C302.75 195.31 302.978 196.174 302.978 197.158C302.978 198.118 302.75 198.976 302.294 199.732C301.838 200.476 301.208 201.064 300.404 201.496C299.6 201.928 298.688 202.144 297.668 202.144ZM297.668 199.84C298.136 199.84 298.556 199.732 298.928 199.516C299.3 199.3 299.594 198.994 299.81 198.598C300.026 198.19 300.134 197.71 300.134 197.158C300.134 196.594 300.026 196.114 299.81 195.718C299.594 195.322 299.3 195.016 298.928 194.8C298.556 194.584 298.136 194.476 297.668 194.476C297.2 194.476 296.78 194.584 296.408 194.8C296.036 195.016 295.736 195.322 295.508 195.718C295.292 196.114 295.184 196.594 295.184 197.158C295.184 197.71 295.292 198.19 295.508 198.598C295.736 198.994 296.036 199.3 296.408 199.516C296.78 199.732 297.2 199.84 297.668 199.84ZM308.941 202.144C308.137 202.144 307.417 201.988 306.781 201.676C306.157 201.364 305.671 200.89 305.323 200.254C304.975 199.606 304.801 198.784 304.801 197.788V192.316H307.609V197.374C307.609 198.178 307.777 198.772 308.113 199.156C308.461 199.528 308.947 199.714 309.571 199.714C310.003 199.714 310.387 199.624 310.723 199.444C311.059 199.252 311.323 198.964 311.515 198.58C311.707 198.184 311.803 197.692 311.803 197.104V192.316H314.611V202H311.947V199.336L312.433 200.11C312.109 200.782 311.629 201.292 310.993 201.64C310.369 201.976 309.685 202.144 308.941 202.144ZM323.098 192.172C323.866 192.172 324.55 192.328 325.15 192.64C325.762 192.94 326.242 193.408 326.59 194.044C326.938 194.668 327.112 195.472 327.112 196.456V202H324.304V196.888C324.304 196.108 324.13 195.532 323.782 195.16C323.446 194.788 322.966 194.602 322.342 194.602C321.898 194.602 321.496 194.698 321.136 194.89C320.788 195.07 320.512 195.352 320.308 195.736C320.116 196.12 320.02 196.612 320.02 197.212V202H317.212V192.316H319.894V194.998L319.39 194.188C319.738 193.54 320.236 193.042 320.884 192.694C321.532 192.346 322.27 192.172 323.098 192.172ZM333.617 202.144C332.477 202.144 331.589 201.856 330.953 201.28C330.317 200.692 329.999 199.822 329.999 198.67V190.174H332.807V198.634C332.807 199.042 332.915 199.36 333.131 199.588C333.347 199.804 333.641 199.912 334.013 199.912C334.457 199.912 334.835 199.792 335.147 199.552L335.903 201.532C335.615 201.736 335.267 201.892 334.859 202C334.463 202.096 334.049 202.144 333.617 202.144ZM328.505 194.692V192.532H335.219V194.692H328.505Z" fill="white"/>
<path d="M208.016 107.177C208.641 106.941 209.36 106.941 209.985 107.177L227.485 113.74C228.579 114.15 229.188 115.176 228.946 116.188C228.712 117.206 227.688 117.876 226.431 117.938V118.484C226.431 119.394 225.665 120.125 224.556 120.125H193.305C192.339 120.125 191.43 119.394 191.43 118.484V117.938C190.314 117.876 189.29 117.206 189.051 116.188C188.813 115.176 189.424 114.15 190.515 113.74L208.016 107.177ZM209.001 115.75C210.383 115.75 211.501 114.772 211.501 113.563C211.501 112.355 210.383 111.375 209.001 111.375C207.618 111.375 206.501 112.355 206.501 113.563C206.501 114.772 207.618 115.75 209.001 115.75ZM198.93 135.438H202.055V122.313H207.055V135.438H210.876V122.313H215.876V135.438H219.001V122.313H224.001V135.731C224.048 135.752 224.095 135.718 224.142 135.807L227.892 137.994C228.806 138.527 229.212 139.525 228.892 140.448C228.571 141.371 227.603 142 226.501 142H191.43C190.399 142 189.427 141.371 189.107 140.448C188.788 139.525 189.197 138.527 190.114 137.994L193.864 135.807C193.908 135.718 193.954 135.752 193.93 135.731V122.313H198.93V135.438Z" fill="white"/>
<circle cx="210" cy="127" r="40.5" stroke="white" stroke-dasharray="2 2"/>
<defs>
<filter id="filter0_d_410_5240" x="0" y="0" width="420" height="310" filterUnits="userSpaceOnUse" color-interpolation-filters="sRGB">
<feFlood flood-opacity="0" result="BackgroundImageFix"/>
<feColorMatrix in="SourceAlpha" type="matrix" values="0 0 0 0 0 0 0 0 0 0 0 0 0 0 0 0 0 0 127 0" result="hardAlpha"/>
<feOffset dy="9"/>
<feGaussianBlur stdDeviation="25"/>
<feComposite in2="hardAlpha" operator="out"/>
<feColorMatrix type="matrix" values="0 0 0 0 0 0 0 0 0 0 0 0 0 0 0 0 0 0 0.1 0"/>
<feBlend mode="normal" in2="BackgroundImageFix" result="effect1_dropShadow_410_5240"/>
<feBlend mode="normal" in="SourceGraphic" in2="effect1_dropShadow_410_5240" result="shape"/>
</filter>
</defs>
</svg>
